<svg width="61" height="70" viewBox="0 0 61 70" fill="none" xmlns="http://www.w3.org/2000/svg">
<path d="M27.1109 1.84752C28.2767 1.17446 28.8595 0.837932 29.4792 0.706212C30.0275 0.589666 30.5942 0.589666 31.1425 0.706212C31.7622 0.837932 32.3451 1.17446 33.5109 1.84752L57.4218 15.6525C58.5876 16.3255 59.1704 16.6621 59.5944 17.1329C59.9694 17.5495 60.2528 18.0402 60.426 18.5733C60.6218 19.1759 60.6218 19.8489 60.6218 21.195V48.805C60.6218 50.1511 60.6218 50.8241 60.426 51.4267C60.2528 51.9598 59.9694 52.4505 59.5944 52.8671C59.1704 53.3379 58.5876 53.6745 57.4218 54.3475L33.5109 68.1525C32.3451 68.8255 31.7622 69.1621 31.1425 69.2938C30.5942 69.4103 30.0275 69.4103 29.4792 69.2938C28.8595 69.1621 28.2767 68.8255 27.1109 68.1525L3.2 54.3475C2.03423 53.6745 1.45134 53.3379 1.02742 52.8671C0.652336 52.4505 0.368995 51.9598 0.195774 51.4267C0 50.8241 0 50.1511 0 48.805V21.195C0 19.8489 0 19.1759 0.195774 18.5733C0.368995 18.0402 0.652336 17.5495 1.02742 17.1329C1.45134 16.6621 2.03423 16.3255 3.2 15.6525L27.1109 1.84752Z" fill="var(--standout-color)"/>
<path d="M50.6974 28.3539C44.8099 30.0976 39.2053 31.4358 33.769 33.4937C30.5538 34.7102 27.7553 33.6002 24.8116 32.7131C19.5549 31.1367 14.2944 29.5958 9.0568 27.9129C8.29984 27.6696 7.6805 26.7066 7 26.078C7.63845 25.5002 8.21955 24.6182 8.93064 24.3952C15.8236 22.2004 22.7165 20.0005 29.6592 18.0946C31.0087 17.7246 32.5876 18.5305 34.0289 18.9513C39.9891 20.7051 45.9263 22.6008 51.9017 24.2634C53.3468 24.6638 53.752 25.4495 53.7253 27.2033C53.6603 31.7703 53.6526 36.3424 53.7444 40.9094C53.7635 41.8117 54.4516 42.6632 54.5969 43.601C54.8187 45 55.2315 46.6828 54.8339 47.8233C54.2796 49.42 53.0486 50.6264 52.1081 52C51.2326 50.6416 50.2386 49.3693 49.5084 47.8892C48.7133 46.2773 48.74 44.6198 50.0628 43.2664C50.3801 42.942 50.663 42.2831 50.6668 41.7762C50.7165 37.4018 50.6974 33.0274 50.6974 28.3539Z" fill = "var(--secondary-bg)"/>
<path d="M16.9017 43.2259C16.9017 40.6458 16.9017 37.3764 16.9017 33.813C20.3883 34.8572 23.722 36.0585 27.1169 36.7935C29.1584 37.2345 31.349 37.3257 33.3866 36.9C36.8962 36.1701 40.3369 34.9181 43.8044 33.884C43.8044 37.3156 43.8044 40.6458 43.8044 43.2664C39.3659 45.1622 35.2332 46.9515 31.0813 48.6698C30.6073 48.8675 29.9918 48.8219 29.5063 48.6191C25.4232 46.9109 21.3555 45.1419 16.9017 43.2259Z" fill="var(--secondary-bg)"/>
</svg>
