<svg width="53" height="45" viewBox="0 0 33 25" fill="none" xmlns="http://www.w3.org/2000/svg">
<path d="M0 24.9963C0.224436 24.2537 0.42461 23.5013 0.679375 22.7635C1.03119 21.7228 1.41334 20.687 1.80156 19.6561C2.03812 19.0307 2.30502 18.4151 2.57798 17.7995C2.90554 17.0764 3.24523 16.3582 3.60311 15.6448C3.86394 15.122 4.14297 14.5993 4.42807 14.0863C4.71316 13.5732 5.01039 13.0602 5.31975 12.5521C5.64123 12.0293 5.97486 11.5114 6.32061 11.0033C6.67849 10.4805 7.05458 9.96748 7.43673 9.45447C7.66723 9.14178 7.90986 8.83397 8.16463 8.53105C8.51645 8.11086 8.88039 7.69068 9.25041 7.28027C9.52337 6.97246 9.80847 6.66954 10.1118 6.38128C10.5606 5.95132 11.0216 5.52625 11.4887 5.10607C11.7131 4.90086 11.9497 4.70543 12.1923 4.51977C12.6109 4.1973 13.0355 3.88461 13.4662 3.57192C13.7573 3.36182 14.0667 3.16639 14.376 2.97096C14.7339 2.75598 15.0918 2.541 15.4618 2.34557C15.8804 2.12571 16.3111 1.9205 16.7417 1.71041C17.2391 1.46612 17.7608 1.26091 18.3006 1.08502C18.6161 0.982419 18.9254 0.87493 19.2409 0.786985C19.6473 0.67461 20.0597 0.581779 20.4601 0.469405C21.0606 0.303286 21.6915 0.249543 22.3102 0.14694C22.9713 0.0394514 23.6386 -0.00452122 24.3058 0.000364626C24.8457 0.00525047 25.3916 0.0492225 25.9315 0.112738C26.3925 0.166483 26.8414 0.2642 27.2902 0.371688C27.6784 0.464519 28.0667 0.572008 28.4306 0.708812C28.8855 0.884702 29.3284 1.08502 29.7469 1.30977C30.2382 1.56872 30.6689 1.89119 31.0571 2.25274C31.5424 2.71201 31.9367 3.22013 32.2278 3.77712C32.5736 4.43671 32.7798 5.12561 32.889 5.83406C33.0043 6.62557 32.98 7.41707 32.9921 8.20858C33.0103 9.30789 32.9921 10.4072 32.9861 11.5065C32.9861 12.1661 32.9739 12.8306 32.9739 13.4902C32.9739 13.5439 32.9739 13.5977 32.9739 13.6563C32.6706 13.6563 32.3855 13.6612 32.0944 13.6563C31.6698 13.6465 31.2452 13.6319 30.8145 13.6123C30.7417 13.6074 30.7053 13.6319 30.6932 13.6856C30.305 14.9266 30.1776 16.1774 30.5112 17.4379C30.6507 17.9607 30.8751 18.4591 31.227 18.9183C31.4878 19.2604 31.785 19.5779 32.1611 19.8467C32.2824 19.9346 32.3977 20.0225 32.5493 20.13C32.3067 20.1887 32.0762 20.262 31.8396 20.301C31.3665 20.3743 30.8933 20.4183 30.4202 20.4867C29.6013 20.604 28.7824 20.5942 27.9575 20.5698C27.6966 20.5649 27.4297 20.5551 27.1689 20.5209C26.532 20.433 25.8951 20.345 25.2642 20.2278C24.87 20.1545 24.4878 20.0372 24.1057 19.9199C23.8206 19.8369 23.5415 19.7392 23.2807 19.6219C22.844 19.4265 22.4072 19.231 21.9887 19.0063C21.6429 18.8206 21.3214 18.6057 21.0121 18.3858C20.4904 18.0145 20.0112 17.6041 19.6109 17.1497C19.2651 16.7588 18.9315 16.3582 18.6464 15.938C18.0216 15.0292 17.5667 14.0618 17.2452 13.0553C17.1967 12.9136 17.1542 12.772 17.1117 12.6303C17.1117 12.6254 17.1117 12.6156 17.1178 12.5912C17.2088 12.6498 17.2877 12.7036 17.3726 12.7573C17.5667 12.8892 17.7487 13.026 17.9549 13.1482C18.2521 13.3241 18.5554 13.4951 18.8708 13.6563C19.2894 13.8762 19.7201 14.0862 20.1447 14.2915C20.363 14.3989 20.5935 14.4918 20.818 14.5895C21.3942 14.8436 21.9947 15.039 22.6074 15.2247C23.1291 15.381 23.6629 15.4641 24.2027 15.5618C24.8336 15.6741 25.4583 15.6741 26.0892 15.6009C26.2954 15.5764 26.4895 15.5227 26.6897 15.4738C26.7322 15.4641 26.7746 15.4103 26.7868 15.3712C26.9869 14.8338 27.1932 14.2963 27.3691 13.754C27.5268 13.2654 27.6663 12.7768 27.7937 12.2834C28.1091 11.057 28.3214 9.82091 28.2911 8.56525C28.279 8.00826 28.2062 7.45616 28.0181 6.91872C27.8665 6.49365 27.6542 6.08812 27.3024 5.74123C27.0658 5.5116 26.7989 5.31616 26.4653 5.18424C26.1195 5.04744 25.7738 4.92041 25.428 4.7836C24.9973 4.6126 24.5303 4.55397 24.0693 4.46602C23.2382 4.30968 22.4012 4.32434 21.5762 4.42694C21.0485 4.49534 20.5268 4.6126 20.0112 4.72497C19.7019 4.79338 19.3986 4.89598 19.1013 4.99858C18.7859 5.10607 18.4705 5.21844 18.1733 5.35036C17.7365 5.54091 17.3059 5.74123 16.8873 5.95132C16.5052 6.14675 16.1351 6.35685 15.7773 6.57182C15.4497 6.76726 15.1282 6.96758 14.8189 7.17767C14.3761 7.48059 13.9454 7.78351 13.5208 8.10109C13.1204 8.40401 12.7261 8.71671 12.344 9.03429C11.98 9.33721 11.6282 9.6499 11.2764 9.9626C10.9488 10.2606 10.6213 10.5636 10.3059 10.8763C9.88733 11.2915 9.47485 11.7068 9.06237 12.1319C8.77121 12.4348 8.49218 12.7426 8.21315 13.0505C7.85527 13.456 7.49738 13.8615 7.14557 14.2768C6.79981 14.6872 6.45406 15.1074 6.1265 15.5276C5.72616 16.0406 5.33188 16.5536 4.94366 17.0715C4.64644 17.4721 4.35528 17.8728 4.07625 18.2832C3.64557 18.9086 3.22703 19.5389 2.81455 20.1691C2.55372 20.5649 2.30502 20.9655 2.06239 21.371C1.63171 22.1039 1.2071 22.8368 0.794628 23.5697C0.545928 24.0094 0.327558 24.4638 0.0970557 24.9084C0.0788582 24.9377 0.0606614 24.967 0.0485297 24.9963C0.0242663 25.0012 0.0121317 25.0012 0 24.9963Z" fill="#F8F8F8"/>
</svg>
