<svg width="20%" height="30%" viewBox="0 0 101 163" fill="none" xmlns="http://www.w3.org/2000/svg">
<rect x="0.50884" y="3.70455" width="6.49987" height="79.1288" transform="rotate(0.00636321 0.50884 3.70455)" stroke="var(--standout-color)"/>
<rect x="0.50884" y="83.3704" width="6.49987" height="79.1288" transform="rotate(0.00636321 0.50884 83.3704)" stroke="var(--standout-color)"/>
<rect x="0.499944" y="0.500055" width="6.49987" height="57.9828" transform="matrix(1 0.000110252 -0.00011217 1 7.50891 51.0039)" stroke="var(--standout-color)"/>
<rect x="-0.517219" y="0.482477" width="6.43556" height="34.5092" transform="matrix(-0.0350307 0.999386 -0.999407 -0.0344325 43.2138 5.65067)" stroke="var(--standout-color)"/>
<rect x="-0.637068" y="0.31112" width="6.44231" height="34.4775" transform="matrix(-0.327593 0.944819 -0.946542 -0.32258 76.1813 15.6622)" stroke="var(--standout-color)"/>
<rect x="-0.709654" y="-0.0262634" width="6.47012" height="34.3462" transform="matrix(-0.735693 0.677315 -0.683616 -0.729842 80.9083 38.9968)" stroke="var(--standout-color)"/>
<rect x="-0.330652" y="-0.6231" width="6.49435" height="34.231" transform="matrix(-0.95677 -0.290846 0.295467 -0.955353 83.8036 107.888)" stroke="var(--standout-color)"/>
<rect x="-0.308506" y="-0.634163" width="6.49303" height="43.6343" transform="matrix(-0.946053 -0.324011 0.329042 -0.944315 69.9103 144.172)" stroke="var(--standout-color)"/>
<rect x="-0.254094" y="-0.657454" width="6.48936" height="34.2548" transform="matrix(-0.915757 -0.401733 0.407568 -0.913175 82.1039 126.304)" stroke="var(--standout-color)"/>
<rect x="-0.119659" y="-0.693988" width="6.47852" height="34.3064" transform="matrix(-0.819308 -0.573353 0.579991 -0.814623 66.8365 150.721)" stroke="var(--standout-color)"/>
<rect x="0.327061" y="-0.624959" width="6.44124" height="34.4825" transform="matrix(-0.300976 -0.953632 0.955099 -0.296286 43.9756 155.216)" stroke="var(--standout-color)"/>
<rect x="7.99986" y="155.663" width="6.43549" height="34.5096" transform="rotate(-90 7.99986 155.663)" stroke="var(--standout-color)"/>
<rect x="0.273397" y="-0.6498" width="6.44469" height="34.4663" transform="matrix(-0.380332 -0.92485 0.927126 -0.37475 41.3106 150.206)" stroke="var(--standout-color)"/>
<rect x="0.550239" y="-0.440707" width="6.44469" height="34.4663" transform="matrix(0.106867 -0.994273 0.993611 0.112859 10.9293 148.558)" stroke="var(--standout-color)"/>
<rect x="-0.614731" y="-0.352537" width="6.49548" height="34.2257" transform="matrix(-0.965737 0.259523 -0.263726 -0.964598 90.2259 70.6408)" stroke="var(--standout-color)"/>
<rect x="-0.685887" y="-0.182482" width="6.48372" height="34.2817" transform="matrix(-0.867009 0.498293 -0.504766 -0.863257 93.6378 48.5343)" stroke="var(--standout-color)"/>
<rect x="-0.540698" y="-0.456475" width="6.49941" height="34.2069" transform="matrix(-0.996513 0.0834417 -0.0848827 -0.996391 93.9848 82.031)" stroke="var(--standout-color)"/>
<rect x="-0.374148" y="-0.598436" width="6.49663" height="34.2202" transform="matrix(-0.974848 -0.222872 0.226551 -0.973999 92.4175 101.648)" stroke="var(--standout-color)"/>
<rect x="-0.637068" y="0.31112" width="6.44231" height="51.4413" transform="matrix(-0.327593 0.944819 -0.946542 -0.32258 81.5242 25.3832)" stroke="var(--standout-color)"/>
<rect x="-0.517219" y="0.482477" width="6.43556" height="34.5092" transform="matrix(-0.0350307 0.999386 -0.999407 -0.0344325 47.481 12.8786)" stroke="var(--standout-color)"/>
<rect x="0.499944" y="0.500055" width="6.49987" height="49.4899" transform="matrix(1 0.000110252 -0.00011217 1 7.50482 109.426)" stroke="var(--standout-color)"/>
<rect x="0.499944" y="0.500055" width="6.49987" height="50.5652" transform="matrix(1 0.000110252 -0.00011217 1 7.5057 -5.51197e-05)" stroke="var(--standout-color)"/>
</svg>
