<svg width="62" height="70" viewBox="0 0 62 70" fill="none" xmlns="http://www.w3.org/2000/svg">
<path d="M29 1.1547C30.2376 0.44017 31.7624 0.440169 33 1.1547L59.3109 16.3453C60.5485 17.0598 61.3109 18.3803 61.3109 19.8094V50.1906C61.3109 51.6197 60.5485 52.9402 59.3109 53.6547L33 68.8453C31.7624 69.5598 30.2376 69.5598 29 68.8453L2.68912 53.6547C1.45151 52.9402 0.689117 51.6197 0.689117 50.1906V19.8094C0.689117 18.3803 1.45151 17.0598 2.68912 16.3453L29 1.1547Z" fill="var(--standout-color)"/>
<path d="M27.5466 33.604C27.5466 34.156 27.5106 34.684 27.4386 35.188C27.3666 35.692 27.2226 36.184 27.0066 36.664C26.8146 37.12 26.5266 37.552 26.1426 37.96C25.7586 38.368 25.2546 38.74 24.6306 39.076C24.3186 39.268 23.8986 39.496 23.3706 39.76C22.8666 40.024 22.3626 40.336 21.8586 40.696C21.3786 41.056 20.9586 41.476 20.5986 41.956C20.2386 42.412 20.0586 42.928 20.0586 43.504C20.0586 44.296 20.3466 44.908 20.9226 45.34C21.4986 45.796 22.1586 46.024 22.9026 46.024C23.3826 46.024 23.8026 45.928 24.1626 45.736C24.5466 45.568 24.8826 45.352 25.1706 45.088C25.4826 44.848 25.7466 44.572 25.9626 44.26C26.1786 43.972 26.3706 43.696 26.5386 43.432L30.2466 46.024C29.6226 47.488 28.6266 48.628 27.2586 49.444C25.9146 50.26 24.3906 50.668 22.6866 50.668C21.7746 50.668 20.8626 50.536 19.9506 50.272C19.0386 50.008 18.2226 49.588 17.5026 49.012C16.7826 48.436 16.1946 47.692 15.7386 46.78C15.2826 45.868 15.0546 44.764 15.0546 43.468C15.0546 42.1 15.3306 40.96 15.8826 40.048C16.4586 39.112 17.2986 38.296 18.4026 37.6C18.9066 37.288 19.4106 37 19.9146 36.736C20.4426 36.448 20.9226 36.16 21.3546 35.872C21.7866 35.584 22.1346 35.26 22.3986 34.9C22.6626 34.54 22.7946 34.108 22.7946 33.604H27.5466ZM27.4386 24.784V30.184H22.7226V24.784H27.4386ZM35.301 34.18C35.301 33.628 35.337 33.1 35.409 32.596C35.481 32.092 35.613 31.612 35.805 31.156C36.021 30.676 36.321 30.232 36.705 29.824C37.089 29.416 37.593 29.044 38.217 28.708C38.529 28.54 38.937 28.324 39.441 28.06C39.969 27.772 40.473 27.448 40.953 27.088C41.457 26.728 41.889 26.32 42.249 25.864C42.609 25.384 42.789 24.856 42.789 24.28C42.789 23.488 42.501 22.876 41.925 22.444C41.349 21.988 40.689 21.76 39.945 21.76C39.465 21.76 39.033 21.856 38.649 22.048C38.289 22.216 37.953 22.432 37.641 22.696C37.353 22.936 37.101 23.212 36.885 23.524C36.669 23.836 36.477 24.112 36.309 24.352L32.601 21.76C33.225 20.296 34.209 19.156 35.553 18.34C36.921 17.524 38.457 17.116 40.161 17.116C41.073 17.116 41.985 17.248 42.897 17.512C43.809 17.776 44.625 18.196 45.345 18.772C46.065 19.348 46.653 20.092 47.109 21.004C47.565 21.916 47.793 23.02 47.793 24.316C47.793 25.684 47.505 26.836 46.929 27.772C46.377 28.684 45.549 29.488 44.445 30.184C43.941 30.52 43.425 30.82 42.897 31.084C42.393 31.348 41.925 31.624 41.493 31.912C41.061 32.2 40.713 32.524 40.449 32.884C40.185 33.244 40.053 33.676 40.053 34.18H35.301ZM35.409 43V37.6H40.125V43H35.409Z" fill="var(--secondary-bg)"/>
</svg>
