<svg width="80" height="80" viewBox="0 0 88 80" fill="none" xmlns="http://www.w3.org/2000/svg">
<g filter="url(#filter0_d)">
<path d="M84 3L76.7118 67.7925L43.951 75L11.2805 67.8026L4 3H84Z" fill="#264DE4"/>
<path d="M70.4723 63.6666L76.7005 8.29846H44V69.4908L70.4723 63.6666Z" fill="#2965F1"/>
<path d="M20.6904 32.3329L21.588 40.2806H44V32.3329H20.6904Z" fill="#EBEBEB"/>
<path d="M44 16.2465H43.9654H18.8867L19.7971 24.1943H44V16.2465Z" fill="#EBEBEB"/>
<path d="M44 61.2432V52.9742L43.9561 52.9834L32.8021 50.5934L32.0891 44.2546H26.6692H22.0355L23.4386 56.7338L43.9539 61.2533L44 61.2432Z" fill="#EBEBEB"/>
<path d="M56.2979 40.2806L55.1354 50.5883L43.9654 52.9808V61.2495L64.497 56.7338L64.6476 55.391L67.0011 34.4672L67.2455 32.333L69.0535 16.2465H43.9654V24.1943H58.0777L57.1664 32.333H43.9654V40.2806H56.2979Z" fill="white"/>
</g>
<defs>
<filter id="filter0_d" x="0" y="0" width="88" height="80" filterUnits="userSpaceOnUse" color-interpolation-filters="sRGB">
<feFlood flood-opacity="0" result="BackgroundImageFix"/>
<feColorMatrix in="SourceAlpha" type="matrix" values="0 0 0 0 0 0 0 0 0 0 0 0 0 0 0 0 0 0 127 0"/>
<feOffset dy="1"/>
<feGaussianBlur stdDeviation="2"/>
<feColorMatrix type="matrix" values="0 0 0 0 0 0 0 0 0 0 0 0 0 0 0 0 0 0 0.25 0"/>
<feBlend mode="normal" in2="BackgroundImageFix" result="effect1_dropShadow"/>
<feBlend mode="normal" in="SourceGraphic" in2="effect1_dropShadow" result="shape"/>
</filter>
</defs>
</svg>
