<svg width="62" height="44" viewBox="0 0 62 44" fill="none" xmlns="http://www.w3.org/2000/svg">
<g clip-path="url(#clip0)">
<path d="M0.509644 39.4166C0.509644 28.0051 0.509644 16.5936 0.509644 5.18215C0.567252 4.99067 0.602703 4.79104 0.682469 4.60771C1.02812 3.82548 1.25412 2.96993 1.76374 2.28956C2.9159 0.765853 4.66188 0.240298 6.61171 0.240298C22.9016 0.23215 39.1915 0.23215 55.477 0.244372C56.1062 0.244372 56.7532 0.305483 57.3559 0.456224C60.0458 1.12845 61.5658 3.06771 61.5702 5.91956C61.5879 16.8096 61.5835 27.6955 61.5746 38.5855C61.5746 40.4351 60.9188 42.0647 59.1817 43.0996C58.3485 43.5966 57.3116 43.8003 56.3677 44.1344C39.4574 44.1344 22.5515 44.1344 5.64123 44.1344C5.50829 44.0855 5.37977 44.0122 5.2424 43.9918C3.83321 43.784 2.60127 43.2136 1.83021 42.1218C1.24969 41.307 0.939491 40.3251 0.509644 39.4166ZM57.4445 1.43808C39.8075 1.43808 22.2901 1.43808 4.66188 1.43808C5.68997 2.19585 6.59398 2.90474 7.54231 3.56067C10.4094 5.53659 13.2899 7.49622 16.1703 9.45585C19.1083 11.4562 22.0463 13.4566 24.9977 15.4366C26.7747 16.6262 28.5916 17.7588 30.373 18.9484C30.7984 19.2336 31.1086 19.2499 31.534 18.9607C33.6256 17.5307 35.7394 16.1333 37.8355 14.7073C40.8932 12.6296 43.9287 10.5233 46.9952 8.45771C50.3365 6.20882 53.7088 3.99252 57.0634 1.75993C57.1742 1.68659 57.2628 1.59289 57.4445 1.43808ZM7.02383 42.6555C7.03713 42.7166 7.05485 42.7736 7.06815 42.8347C22.9637 42.8347 38.8636 42.8347 54.8876 42.8347C54.7015 42.6555 54.6129 42.5536 54.5109 42.4721C52.4326 40.8833 50.3454 39.2984 48.2671 37.7136C45.9228 35.9251 43.5698 34.1488 41.2388 32.3481C38.7041 30.3884 36.1826 28.4084 33.67 26.4244C33.3509 26.1718 33.1027 26.1473 32.7837 26.3959C32.3583 26.7259 31.9107 27.0355 31.4897 27.3655C31.1662 27.6181 30.8782 27.6507 30.5325 27.3899C30.0672 27.0355 29.562 26.7259 29.1012 26.3714C28.7201 26.0781 28.4143 26.1433 28.0997 26.4529C27.7673 26.7747 27.4305 27.1007 27.0627 27.3899C24.6697 29.264 22.2812 31.1462 19.8661 32.9959C17.1363 35.094 14.3844 37.1718 11.6325 39.2455C10.0992 40.3903 8.5571 41.5188 7.02383 42.6555ZM33.6168 25.9192C40.7292 31.2929 47.7929 36.634 54.8876 41.9914C54.8876 31.9244 54.8876 21.8655 54.8876 11.664C47.7397 16.4551 40.7026 21.1729 33.6168 25.9192ZM7.44482 11.8636C7.35176 11.9125 7.26313 11.9573 7.17007 12.0062C7.07701 21.9796 6.97952 31.9488 6.88646 42.1177C7.31187 41.804 7.54231 41.6451 7.75945 41.474C9.07558 40.4066 10.3607 39.3107 11.7078 38.2759C14.4199 36.1899 17.1408 34.1121 19.8927 32.0751C22.135 30.4129 24.4349 28.8159 26.6993 27.174C27.24 26.7829 27.723 26.3266 28.2459 25.8866C21.2664 21.181 14.3534 16.5244 7.44482 11.8636Z" fill="#73777A"/>
<g clip-path="url(#clip1)">
<path d="M319.9 575C139.2 575 -41.5 575 -222.2 575C-224.2 574.5 -226.2 573.7 -228.2 573.5C-267.3 569.3 -304.4 558.8 -339.8 541.4C-395.5 514 -437 471.4 -468.1 419.1C-494.3 375.2 -504.8 326 -504.9 274.8C-504.9 114.9 -505.3 -45 -504.7 -204.8C-504.5 -261.5 -491.7 -314.8 -458.8 -362.7C-434.3 -398.4 -406.8 -430.5 -369.7 -453.7C-344 -469.8 -317.6 -484.4 -288 -491.7C-266.4 -497 -244.2 -500.6 -222.2 -505C-41.5 -505 139.2 -505 319.9 -505C321.2 -504.5 322.5 -503.8 323.8 -503.7C378.2 -499.4 427.5 -480.6 472.8 -450.9C508.6 -427.5 535.5 -395.1 559.3 -360.2C576.4 -335.1 587 -306.7 593.8 -277.1C597.4 -261.1 599.7 -244.8 602.6 -228.6C602.6 -52.8 602.6 123 602.6 298.7C602 301.4 601.3 304.1 600.9 306.8C594.8 356.9 579.4 403.2 549.1 444.6C517.5 487.7 479.3 522.2 430.6 544.3C413.2 552.2 394.9 558.8 376.5 563.9C358 569 338.8 571.4 319.9 575ZM48.3 479.3C128.8 479.3 209.3 479.1 289.8 479.3C370.7 479.5 433.3 445.4 477.1 377.9C498.3 345.2 504.8 307.8 504.8 269.1C504.7 113.7 504.7 -41.6 504.8 -197C504.8 -248.1 492.5 -294.5 457.8 -333.8C437.5 -356.7 415 -376.4 387 -389.2C351.1 -405.7 313.1 -409.6 274 -409.4C120.4 -408.9 -33.2 -409.3 -186.8 -409.1C-203.3 -409.1 -219.9 -408.4 -236.1 -405.6C-303.1 -394 -351.6 -355.8 -384.8 -297.8C-402.3 -267.2 -407 -233 -407 -198.1C-406.9 -43.1 -407 111.9 -406.9 267C-406.9 310.6 -398.9 351.6 -371.9 387.7C-354.2 411.4 -335 432.9 -309.5 448.1C-273.1 469.8 -233.4 479.5 -191 479.3C-111.3 479 -31.5 479.3 48.3 479.3Z" fill="black"/>
<path d="M60 -243.1C107.8 -242.1 161.9 -226.3 211.4 -193.2C246.4 -169.8 273.3 -139.7 294.8 -104.1C346.4 -18.6 347.5 69.6 304.8 157.8C286 196.6 258.5 230.7 222.4 256C134.9 317.3 40.3 330.6 -59.4 292C-123 267.4 -170.7 223.5 -203.6 162.8C-244.5 87.3 -247.1 9.90002 -215.9 -68.2C-198 -113.2 -169.1 -152.1 -130 -181.8C-77.4 -221.8 -17.8 -243.1 60 -243.1ZM49.7 -147.3C-55.3 -148.3 -138.2 -62.3 -138.8 34.1C-139.4 128.7 -58.4 217.3 49.1 217.4C152.6 217.5 236 132.2 236.6 35.8C237.1 -59.1 155.5 -147.5 49.7 -147.3Z" fill="black"/>
</g>
</g>
<defs>
<clipPath id="clip0">
<rect width="62" height="44" fill="white"/>
</clipPath>
<clipPath id="clip1">
<rect width="1109.5" height="1080" fill="white" transform="translate(-507 -505)"/>
</clipPath>
</defs>
</svg>
