<svg width="8vh" height="8vh" viewBox="0 0 79 74" fill="none" xmlns="http://www.w3.org/2000/svg">
<path d="M7.18182 66.4844L0 0H79L71.8182 66.4844L39.4124 74" fill="var(--logo-1)"/>
<path d="M39.5876 68.2188L65.6874 62.293L71.8182 5.34766H39.5876" fill="var(--logo-1)"/>
<path d="M39.5876 30.0625H26.4501L25.5743 21.6797H39.5876V13.5859H39.4124H14.714L14.8891 15.7539L17.3415 38.3008H39.5876V30.0625ZM39.5876 51.3086H39.4124L28.3769 48.8516L27.6763 42.3477H22.4213H17.867L19.0931 55.2109L39.4124 59.8359H39.5876V51.3086Z" fill="var(--logo-3)"/>
<path d="M39.4124 30.0625V38.3008H51.6741L50.4479 48.8516L39.4124 51.3086V59.8359L59.7317 55.2109L59.9069 53.7656L62.184 32.2305L62.5344 30.0625H59.7317H39.4124ZM39.4124 13.5859V18.6445V21.6797H63.4102L63.5854 19.9453L64.1109 15.7539L64.286 13.5859H39.4124Z" fill="var(--logo-3)"/>
</svg>
