<svg width="4vh" height="4vh" viewBox="0 0 45 44" fill="none" xmlns="http://www.w3.org/2000/svg">
<path d="M33.5381 44C26.2091 44 18.8801 44 11.5511 44C11.47 43.9796 11.3889 43.947 11.3078 43.9389C9.72193 43.7678 8.2172 43.34 6.78142 42.6311C4.5223 41.5148 2.83911 39.7793 1.57773 37.6485C0.515085 35.86 0.0892179 33.8556 0.085162 31.7696C0.085162 25.2552 0.0689385 18.7407 0.0932737 12.2304C0.101386 9.92037 0.620538 7.74889 1.95492 5.79741C2.94861 4.34296 4.06398 3.03519 5.56871 2.09C6.61107 1.43407 7.68183 0.839259 8.88237 0.541852C9.75844 0.325926 10.6588 0.179259 11.5511 0C18.8801 0 26.2091 0 33.5381 0C33.5908 0.0203704 33.6435 0.0488889 33.6962 0.052963C35.9026 0.228148 37.9022 0.994074 39.7395 2.20407C41.1915 3.15741 42.2826 4.47741 43.2479 5.89926C43.9414 6.92185 44.3713 8.07889 44.6471 9.28481C44.7931 9.93667 44.8864 10.6007 45.004 11.2607C45.004 18.423 45.004 25.5852 45.004 32.7433C44.9797 32.8533 44.9513 32.9633 44.9351 33.0733C44.6877 35.1144 44.0631 37.0007 42.8341 38.6874C41.5525 40.4433 40.0031 41.8489 38.0279 42.7493C37.3222 43.0711 36.58 43.34 35.8337 43.5478C35.0834 43.7556 34.3046 43.8533 33.5381 44ZM22.5223 40.1011C25.7873 40.1011 29.0523 40.093 32.3172 40.1011C35.5985 40.1093 38.1374 38.72 39.9139 35.97C40.7738 34.6378 41.0374 33.1141 41.0374 31.5374C41.0333 25.2063 41.0333 18.8793 41.0374 12.5481C41.0374 10.4663 40.5385 8.57593 39.1311 6.97481C38.3078 6.04185 37.3952 5.23926 36.2596 4.71778C34.8035 4.04556 33.2623 3.88667 31.6764 3.89481C25.4466 3.91519 19.2168 3.89889 12.9869 3.90704C12.3177 3.90704 11.6444 3.93556 10.9874 4.04963C8.26993 4.52222 6.30283 6.07852 4.95627 8.44148C4.2465 9.68815 4.05587 11.0815 4.05587 12.5033C4.05993 18.8181 4.05587 25.133 4.05993 31.4519C4.05993 33.2281 4.3844 34.8985 5.47948 36.3693C6.19737 37.3348 6.9761 38.2107 8.01035 38.83C9.48669 39.7141 11.0969 40.1093 12.8166 40.1011C16.0491 40.0889 19.2857 40.1011 22.5223 40.1011Z" fill="#73777A"/>
<path d="M22.9968 10.6699C24.9356 10.7107 27.1298 11.3544 29.1374 12.7029C30.557 13.6562 31.648 14.8825 32.5201 16.3329C34.6129 19.8162 34.6575 23.4096 32.9256 27.0029C32.1631 28.5836 31.0478 29.9729 29.5836 31.0036C26.0347 33.501 22.1978 34.0429 18.1541 32.4703C15.5746 31.4681 13.6399 29.6796 12.3055 27.2066C10.6467 24.1307 10.5412 20.9773 11.8067 17.7955C12.5327 15.9621 13.7048 14.3773 15.2907 13.1673C17.4241 11.5377 19.8414 10.6699 22.9968 10.6699ZM22.5791 14.5729C18.3204 14.5321 14.9581 18.0358 14.9337 21.9633C14.9094 25.8173 18.1947 29.427 22.5547 29.431C26.7526 29.4351 30.1352 25.9599 30.1595 22.0325C30.1798 18.1662 26.8702 14.5647 22.5791 14.5729Z" fill="#73777A"/>
<path d="M34.6575 7.366C36.2799 7.40674 37.6021 8.71452 37.5372 10.2545C37.4601 11.9942 36.1866 13.0575 34.5399 13.0575C32.9621 13.0575 31.6521 11.7212 31.6724 10.1975C31.6886 8.61267 33.0433 7.32933 34.6575 7.366Z" fill="#73777A"/>
</svg>
