<svg width="61" height="70" viewBox="0 0 61 70" fill="none" xmlns="http://www.w3.org/2000/svg">
<path d="M28.3109 1.1547C29.5485 0.44017 31.0733 0.440169 32.3109 1.1547L58.6218 16.3453C59.8594 17.0598 60.6218 18.3803 60.6218 19.8094V50.1906C60.6218 51.6197 59.8594 52.9402 58.6218 53.6547L32.3109 68.8453C31.0733 69.5598 29.5485 69.5598 28.3109 68.8453L2 53.6547C0.762397 52.9402 0 51.6197 0 50.1906V19.8094C0 18.3803 0.762396 17.0598 2 16.3453L28.3109 1.1547Z" fill="#EAEAEA"/>
<path d="M28.3109 1.1547C29.5485 0.44017 31.0733 0.440169 32.3109 1.1547L58.6218 16.3453C59.8594 17.0598 60.6218 18.3803 60.6218 19.8094V50.1906C60.6218 51.6197 59.8594 52.9402 58.6218 53.6547L32.3109 68.8453C31.0733 69.5598 29.5485 69.5598 28.3109 68.8453L2 53.6547C0.762397 52.9402 0 51.6197 0 50.1906V19.8094C0 18.3803 0.762396 17.0598 2 16.3453L28.3109 1.1547Z" fill="var(--standout-color)"/>
<path d="M33.7187 14.2188C32.3596 14.2188 31.2578 15.3205 31.2578 16.6797C31.2578 18.0388 32.3596 19.1406 33.7187 19.1406C35.0779 19.1406 36.1797 18.0388 36.1797 16.6797C36.1797 15.3205 35.0779 14.2188 33.7187 14.2188ZM33.7187 45.8594C32.3596 45.8594 31.2578 46.9612 31.2578 48.3203C31.2578 49.6795 32.3596 50.7812 33.7187 50.7812C35.0779 50.7812 36.1797 49.6795 36.1797 48.3203C36.1797 46.9612 35.0779 45.8594 33.7187 45.8594ZM27.3906 19.2109C27.3906 17.4531 25.9844 16.0469 24.2266 16.0469C22.4687 16.0469 21.0625 17.4531 21.0625 19.2109C20.4648 18.7539 19.7617 18.5078 18.9531 18.5078C17.0195 18.5078 15.4375 20.0898 15.4375 22.0234C15.4375 22.4102 15.5078 22.7617 15.6133 23.0781C15.543 23.0781 15.5078 23.0781 15.4375 23.0781C13.293 23.0781 11.5703 24.8008 11.5703 26.9453C11.5703 27.7891 11.8164 28.5273 12.2734 29.1602C10.7969 30.1094 9.8125 31.7266 9.8125 33.625C9.8125 35.4883 10.7969 37.1406 12.2383 38.0547C11.8164 38.8281 11.5703 39.707 11.5703 40.6563C11.5703 43.5742 13.9258 45.9297 16.8438 45.9297C16.9492 45.9297 17.0547 45.9297 17.1602 45.9297C17.8633 47.9688 19.832 49.4453 22.1172 49.4453C25.0352 49.4453 27.3906 47.0898 27.3906 44.1719C27.3906 41.2891 27.3906 20.9688 27.3906 19.2109H27.3906Z" fill="var(--secondary-bg)"/>
<path d="M24.2266 14.9922C22.4336 14.9922 20.9219 16.082 20.2891 17.6641C19.8672 17.5234 19.4102 17.4531 18.9531 17.4531C16.4219 17.4531 14.3828 19.4922 14.3828 22.0234C14.3828 22.0234 14.3828 22.0234 14.3828 22.0586C12.168 22.5508 10.4805 24.5195 10.4805 26.875C10.4805 27.5781 10.6211 28.2461 10.9023 28.8789C9.56641 30.0742 8.75781 31.7969 8.75781 33.625C8.75781 33.8359 8.75781 34.0117 8.79297 34.1875C8.79297 34.2227 8.79297 34.2578 8.79297 34.293C8.82812 34.4688 8.82812 34.6797 8.86328 34.8555C8.86328 34.8906 8.86328 34.8906 8.86328 34.9258C8.89843 35.1016 8.93359 35.2773 9.0039 35.4531V35.4883C9.07422 35.6641 9.14453 35.8398 9.21484 36.0508C9.21484 36.0508 9.21484 36.0859 9.25 36.0859C9.39062 36.4375 9.60156 36.7891 9.8125 37.1055C9.8125 37.1055 9.8125 37.1406 9.84766 37.1406C10.0586 37.457 10.3047 37.7383 10.5859 38.0195C10.6211 38.0547 10.6211 38.0547 10.6562 38.0898C10.7969 38.1953 10.9023 38.3359 11.043 38.4414C11.0781 38.4766 11.1133 38.5117 11.1484 38.5117C11.2539 38.582 11.3594 38.6523 11.4648 38.7227C11.5352 38.7578 11.5703 38.793 11.6406 38.8633L11.6758 38.8984C11.7109 38.8984 11.7109 38.9336 11.7461 38.9336C12.7305 39.5312 13.8555 39.8828 15.0859 39.8828C18.5664 39.8828 21.4141 37.0352 21.4141 33.5547V31.7969C21.4141 31.1992 20.957 30.7422 20.3594 30.7422C19.7617 30.7422 19.3047 31.1992 19.3047 31.7969V33.5547C19.3047 35.875 17.4063 37.7734 15.0859 37.7734C14.2422 37.7734 13.4688 37.5273 12.8008 37.1055C12.5195 36.9297 12.2383 36.7188 12.0274 36.4727C11.9922 36.4375 11.957 36.4023 11.957 36.3672C11.8867 36.2969 11.8164 36.1914 11.7461 36.0859C11.7109 36.0508 11.6758 36.0156 11.6406 35.9453C11.5703 35.8398 11.5 35.7344 11.4297 35.6289C11.4297 35.5937 11.3945 35.5937 11.3945 35.5586C11.3242 35.418 11.2539 35.2773 11.1836 35.1367C11.1484 35.1016 11.1484 35.0312 11.1133 34.9961C11.0781 34.8906 11.043 34.7852 11.0078 34.6797C11.0078 34.6094 10.9727 34.5742 10.9727 34.5039C10.9375 34.3984 10.9375 34.293 10.9023 34.1875C10.9023 34.1523 10.9023 34.082 10.8672 34.0469C10.8672 33.9766 10.8672 33.8008 10.8672 33.625C10.8672 32.1836 11.6055 30.8477 12.8359 30.0742C13.2227 29.8281 13.3984 29.3711 13.293 28.9141C13.2578 28.7734 13.2227 28.5977 13.1172 28.457C12.7656 27.9648 12.5899 27.4375 12.5899 26.8398C12.5899 25.4687 13.5742 24.3437 14.875 24.0625C15.6484 25.5391 17.1602 26.5586 18.9531 26.5586C19.5508 26.5586 20.0078 26.1016 20.0078 25.5039C20.0078 24.9062 19.5508 24.4492 18.9531 24.4492C17.8633 24.4492 16.9141 23.7109 16.5977 22.7266C16.5625 22.6211 16.5274 22.5156 16.5274 22.4102C16.5274 22.375 16.5274 22.375 16.5274 22.3398C16.5274 22.2344 16.4922 22.1289 16.4922 21.9883C16.4922 20.6172 17.582 19.5273 18.9531 19.5273C19.4805 19.5273 20.0078 19.7031 20.4297 20.0195C20.7461 20.2656 21.168 20.3008 21.5195 20.125C21.8711 19.9492 22.1172 19.5977 22.1172 19.1758C22.1172 19.1758 22.1172 19.1758 22.1172 19.1406C22.1172 17.9805 23.0664 17.0664 24.2266 17.0664C25.3867 17.0664 26.3359 18.0156 26.3359 19.1758V44.1367C26.3359 46.457 24.4375 48.3555 22.1172 48.3555C20.3242 48.3555 18.7422 47.2305 18.1445 45.543C18.0039 45.0859 17.5469 44.8047 17.0899 44.8398H16.9844C16.9492 44.8398 16.8789 44.8398 16.8438 44.8398C14.5234 44.8398 12.625 42.9414 12.625 40.6211C12.625 40.0234 12.168 39.5664 11.5703 39.5664C10.9727 39.5664 10.5156 40.0234 10.5156 40.6211C10.5156 43.9609 13.1524 46.7383 16.457 46.9492C17.5117 49.0938 19.6914 50.4648 22.1172 50.4648C25.5977 50.4648 28.4453 47.6172 28.4453 44.1367V19.1758C28.4453 16.8906 26.5469 14.9922 24.2266 14.9922L24.2266 14.9922Z" fill="var(--secondary-bg)"/>
<path d="M14.0312 30.25H12.2734C11.6758 30.25 11.2188 29.793 11.2188 29.1953C11.2188 28.5977 11.6758 28.1406 12.2734 28.1406H14.0312C14.6289 28.1406 15.0859 28.5977 15.0859 29.1953C15.0859 29.793 14.6289 30.25 14.0312 30.25Z" fill="var(--secondary-bg)"/>
<path d="M46.0234 30.0391C44.6643 30.0391 43.5625 31.1409 43.5625 32.5C43.5625 33.8591 44.6643 34.9609 46.0234 34.9609C47.3826 34.9609 48.4844 33.8591 48.4844 32.5C48.4844 31.1409 47.3826 30.0391 46.0234 30.0391ZM42.8594 19.1406C41.5002 19.1406 40.3984 20.2424 40.3984 21.6016C40.3984 22.9607 41.5002 24.0625 42.8594 24.0625C44.2185 24.0625 45.3203 22.9607 45.3203 21.6016C45.3203 20.2424 44.2185 19.1406 42.8594 19.1406ZM42.8594 40.9375C41.5002 40.9375 40.3984 42.0393 40.3984 43.3984C40.3984 44.7576 41.5002 45.8594 42.8594 45.8594C44.2185 45.8594 45.3203 44.7576 45.3203 43.3984C45.3203 42.0393 44.2185 40.9375 42.8594 40.9375Z" fill="var(--secondary-bg)"/>
<path d="M41.1016 42.6953C40.8203 42.6953 40.5742 42.5898 40.3633 42.3789L36.8125 38.8281H31.9609C31.3633 38.8281 30.9062 38.3711 30.9062 37.7734C30.9062 37.1758 31.3633 36.7187 31.9609 36.7187H37.2344C37.5156 36.7187 37.7969 36.8242 37.9727 37.0352L41.8398 40.9023C42.2617 41.3242 42.2617 41.9922 41.8398 42.3789C41.6289 42.5898 41.3828 42.6953 41.1016 42.6953H41.1016ZM37.2344 28.2812H31.9609C31.3633 28.2812 30.9062 27.8242 30.9062 27.2266C30.9062 26.6289 31.3633 26.1719 31.9609 26.1719H36.8125L40.3633 22.6211C40.7852 22.1992 41.4531 22.1992 41.8398 22.6211C42.2617 23.043 42.2617 23.7109 41.8398 24.0977L37.9727 27.9648C37.7969 28.1758 37.5156 28.2812 37.2344 28.2812ZM43.5625 33.5547H31.9609C31.3633 33.5547 30.9062 33.0977 30.9062 32.5C30.9062 31.9023 31.3633 31.4453 31.9609 31.4453H43.5625C44.1602 31.4453 44.6172 31.9023 44.6172 32.5C44.6172 33.0977 44.1602 33.5547 43.5625 33.5547Z" fill="var(--secondary-bg)"/>
<path d="M46.0234 36.0156C44.0898 36.0156 42.5078 34.4336 42.5078 32.5C42.5078 30.5664 44.0898 28.9844 46.0234 28.9844C47.957 28.9844 49.5391 30.5664 49.5391 32.5C49.5391 34.4336 47.957 36.0156 46.0234 36.0156ZM46.0234 31.0938C45.25 31.0938 44.6172 31.7266 44.6172 32.5C44.6172 33.2734 45.25 33.9062 46.0234 33.9062C46.7969 33.9062 47.4297 33.2734 47.4297 32.5C47.4297 31.7266 46.7969 31.0938 46.0234 31.0938ZM42.8594 25.1172C40.9258 25.1172 39.3438 23.5352 39.3438 21.6016C39.3438 19.668 40.9258 18.0859 42.8594 18.0859C44.793 18.0859 46.375 19.668 46.375 21.6016C46.375 23.5352 44.793 25.1172 42.8594 25.1172ZM42.8594 20.1953C42.0859 20.1953 41.4531 20.8281 41.4531 21.6016C41.4531 22.375 42.0859 23.0078 42.8594 23.0078C43.6328 23.0078 44.2656 22.375 44.2656 21.6016C44.2656 20.8281 43.6328 20.1953 42.8594 20.1953ZM33.7188 20.1953C31.7852 20.1953 30.2031 18.6133 30.2031 16.6797C30.2031 14.7461 31.7852 13.1641 33.7188 13.1641C35.6523 13.1641 37.2344 14.7461 37.2344 16.6797C37.2344 18.6133 35.6523 20.1953 33.7188 20.1953ZM33.7188 15.2734C32.9453 15.2734 32.3125 15.9062 32.3125 16.6797C32.3125 17.4531 32.9453 18.0859 33.7188 18.0859C34.4922 18.0859 35.125 17.4531 35.125 16.6797C35.125 15.9062 34.4922 15.2734 33.7188 15.2734ZM42.8594 46.9141C40.9258 46.9141 39.3438 45.332 39.3438 43.3984C39.3438 41.4648 40.9258 39.8828 42.8594 39.8828C44.793 39.8828 46.375 41.4648 46.375 43.3984C46.375 45.332 44.793 46.9141 42.8594 46.9141ZM42.8594 41.9922C42.0859 41.9922 41.4531 42.625 41.4531 43.3984C41.4531 44.1719 42.0859 44.8047 42.8594 44.8047C43.6328 44.8047 44.2656 44.1719 44.2656 43.3984C44.2656 42.625 43.6328 41.9922 42.8594 41.9922ZM33.7188 51.8359C31.7852 51.8359 30.2031 50.2539 30.2031 48.3203C30.2031 46.3867 31.7852 44.8047 33.7188 44.8047C35.6523 44.8047 37.2344 46.3867 37.2344 48.3203C37.2344 50.2539 35.6523 51.8359 33.7188 51.8359ZM33.7188 46.9141C32.9453 46.9141 32.3125 47.5469 32.3125 48.3203C32.3125 49.0938 32.9453 49.7266 33.7188 49.7266C34.4922 49.7266 35.125 49.0938 35.125 48.3203C35.125 47.5469 34.4922 46.9141 33.7188 46.9141Z" fill="var(--secondary-bg)"/>
</svg>
