<svg width="20%" height="30%" viewBox="0 0 109 163" fill="none" xmlns="http://www.w3.org/2000/svg">
<rect x="91.1982" y="0.5" width="5.22439" height="126.885" stroke="var(--standout-color)"/>
<rect x="97.4226" y="0.5" width="5.22438" height="65.5321" stroke="var(--standout-color)"/>
<rect x="97.4226" y="0.5" width="5.22438" height="65.5321" stroke="var(--standout-color)"/>
<rect x="97.4226" y="66.6477" width="5.22438" height="45.7443" stroke="var(--standout-color)"/>
<rect x="0.430293" y="0.560175" width="5.22354" height="45.7508" transform="matrix(0.991648 0.128975 -0.131062 0.991374 100.09 98.5269)" stroke="var(--standout-color)"/>
<rect x="-0.100197" y="0.697169" width="5.19201" height="65.8821" transform="matrix(0.602454 0.798153 -0.802848 0.596184 105.789 118.545)" stroke="var(--standout-color)"/>
<rect x="0.605443" y="-0.367858" width="5.17664" height="66.0469" transform="matrix(0.238966 -0.971028 0.97192 0.235312 19.4914 141.246)" stroke="var(--standout-color)"/>
<rect x="0.701295" y="-0.109871" width="5.19139" height="52.0065" transform="matrix(0.592274 -0.805736 0.810315 0.585994 15.3435 131.302)" stroke="var(--standout-color)"/>
<rect x="0.70131" y="0.109773" width="5.20686" height="51.8743" transform="matrix(0.810233 -0.586107 0.592387 0.805653 10.7384 113.434)" stroke="var(--standout-color)"/>
<rect x="0.699046" y="-0.123169" width="5.19048" height="52.0142" transform="matrix(0.576819 -0.816872 0.821273 0.570535 0.396978 128.169)" stroke="var(--standout-color)"/>
<rect x="-0.318841" y="0.629227" width="5.1787" height="66.0248" transform="matrix(0.313431 0.949611 -0.951113 0.308843 101.474 134.797)" stroke="var(--standout-color)"/>
<rect x="-0.559729" y="0.433274" width="5.17459" height="66.0687" transform="matrix(-0.127341 0.991859 -0.992117 -0.125311 81.0288 153.612)" stroke="var(--standout-color)"/>
<rect x="0.357886" y="0.608223" width="5.22121" height="65.5665" transform="matrix(0.968525 0.248916 -0.252754 0.967531 97.0177 90.7735)" stroke="var(--standout-color)"/>
</svg>
