<svg width="8vh" height="8vh" viewBox="0 0 140 140" fill="none" xmlns="http://www.w3.org/2000/svg">
<circle cx="70" cy="70" r="70" fill="var(--logo-1)"/>
<path d="M51.1173 96C51.1173 96 46.259 98.6986 54.5957 99.5882C64.686 100.685 69.8605 100.537 80.9857 98.5206C80.9857 98.5206 83.9179 100.27 88 101.783C63.0474 111.954 31.5405 101.19 51.1173 96Z" fill="var(--logo-3)"/>
<path d="M47.8507 83C47.8507 83 42.3954 86.9385 50.7219 87.7565C61.4889 88.8472 70.0164 88.9381 84.7457 86.1811C84.7457 86.1811 86.7843 88.1807 90 89.2713C59.8523 97.8149 26.2879 89.9378 47.8507 83Z" fill="var(--logo-3)"/>
<path d="M73.7422 60.2008C80.0186 66.9419 72.0998 73 72.0998 73C72.0998 73 88.0254 65.3383 80.7225 55.7463C73.8889 46.8076 68.639 42.3531 97 27C97 27 52.5082 37.3641 73.7422 60.2008Z" fill="var(--logo-3)"/>
<path d="M108.441 106.024C108.441 106.024 112.182 108.869 104.311 111.086C89.3156 115.278 41.9063 116.536 28.7371 111.265C24.0081 109.379 32.8674 106.743 35.6808 106.174C38.5841 105.605 40.2602 105.695 40.2602 105.695C34.9924 102.281 6.22961 112.403 25.6543 115.308C78.6006 123.214 122.179 111.744 108.441 106.024Z" fill="var(--logo-3)"/>
<path d="M52.0705 68.0195C52.0705 68.0195 28.1912 73.4184 43.6269 75.3817C50.1448 76.2099 63.1214 76.0258 75.2092 75.0442C85.075 74.2466 95 72.5595 95 72.5595C95 72.5595 91.504 73.9706 88.9857 75.6271C64.7509 81.7009 17.9107 78.8787 31.3909 72.6515C42.7973 67.4366 52.0705 68.0195 52.0705 68.0195Z" fill="var(--logo-3)"/>
<path d="M95.477 91.3728C120.28 79.4855 108.803 68.0462 100.813 69.5993C98.8457 69.9876 97.9812 70.3161 97.9812 70.3161C97.9812 70.3161 98.6967 69.2708 100.098 68.8228C115.928 63.6855 128.121 83.9656 95 92C95 91.9701 95.3876 91.6416 95.477 91.3728Z" fill="var(--logo-3)"/>
<path d="M80.5852 6C80.5852 6 93.8912 17.7357 67.9719 35.8098C47.1903 50.2857 63.2383 58.5616 67.9719 68C55.8493 58.3402 46.9305 49.8429 52.9053 41.9268C61.6797 30.3018 85.9538 24.6554 80.5852 6Z" fill="var(--logo-3)"/>
<path d="M55.4756 122.635C78.9899 123.972 115.145 121.896 116 112C116 112 114.35 115.754 96.552 118.74C76.4558 122.095 51.7038 121.697 37 119.564C37 119.536 40.0056 121.754 55.4756 122.635Z" fill="var(--logo-3)"/>
</svg>
