<svg width="82" height="78" viewBox="0 0 82 78" fill="none" xmlns="http://www.w3.org/2000/svg">
<g filter="url(#filter0_d)">
<path d="M78 3H4V73H78V3Z" fill="#F7DF1E"/>
<path d="M53.7092 57.6877C55.1998 59.9899 57.1391 61.6822 60.5689 61.6822C63.4502 61.6822 65.2908 60.3199 65.2908 58.4377C65.2908 56.1822 63.3997 55.3833 60.2283 54.0711L58.4898 53.3655C53.4719 51.3433 50.1384 48.8099 50.1384 43.4544C50.1384 38.5211 54.1121 34.7655 60.3222 34.7655C64.7434 34.7655 67.9219 36.2211 70.2124 40.0322L64.7975 43.3211C63.6052 41.2988 62.319 40.5022 60.3222 40.5022C58.2855 40.5022 56.9946 41.7244 56.9946 43.3211C56.9946 45.2944 58.2866 46.0933 61.2701 47.3155L63.0085 48.0199C68.9168 50.4166 72.2527 52.8599 72.2527 58.3533C72.2527 64.2755 67.3346 67.5199 60.7298 67.5199C54.2718 67.5199 50.0997 64.6088 48.0582 60.7933L53.7092 57.6877ZM29.1447 58.2577C30.2371 60.0911 31.2308 61.6411 33.62 61.6411C35.9046 61.6411 37.3458 60.7955 37.3458 57.5077V35.1411H44.2995V57.5966C44.2995 64.4077 40.0779 67.5077 33.916 67.5077C28.3484 67.5077 25.1241 64.7822 23.4843 61.4994L29.1447 58.2577Z" fill="black"/>
</g>
<defs>
<filter id="filter0_d" x="0" y="0" width="82" height="78" filterUnits="userSpaceOnUse" color-interpolation-filters="sRGB">
<feFlood flood-opacity="0" result="BackgroundImageFix"/>
<feColorMatrix in="SourceAlpha" type="matrix" values="0 0 0 0 0 0 0 0 0 0 0 0 0 0 0 0 0 0 127 0"/>
<feOffset dy="1"/>
<feGaussianBlur stdDeviation="2"/>
<feColorMatrix type="matrix" values="0 0 0 0 0 0 0 0 0 0 0 0 0 0 0 0 0 0 0.25 0"/>
<feBlend mode="normal" in2="BackgroundImageFix" result="effect1_dropShadow"/>
<feBlend mode="normal" in="SourceGraphic" in2="effect1_dropShadow" result="shape"/>
</filter>
</defs>
</svg>
