<svg width="8vh" height="8vh" viewBox="0 0 74 70" fill="none" xmlns="http://www.w3.org/2000/svg">
<path d="M74 0H0V70H74V0Z" fill="var(--logo-1)"/>
<path d="M49.7092 54.6877C51.1998 56.9899 53.1391 58.6822 56.5689 58.6822C59.4502 58.6822 61.2908 57.3199 61.2908 55.4377C61.2908 53.1822 59.3997 52.3833 56.2283 51.0711L54.4898 50.3655C49.4719 48.3433 46.1384 45.8099 46.1384 40.4544C46.1384 35.5211 50.1121 31.7655 56.3222 31.7655C60.7434 31.7655 63.9219 33.2211 66.2124 37.0322L60.7975 40.3211C59.6052 38.2988 58.3191 37.5022 56.3222 37.5022C54.2855 37.5022 52.9946 38.7244 52.9946 40.3211C52.9946 42.2944 54.2866 43.0933 57.2701 44.3155L59.0085 45.0199C64.9168 47.4166 68.2527 49.8599 68.2527 55.3533C68.2527 61.2755 63.3346 64.5199 56.7298 64.5199C50.2718 64.5199 46.0997 61.6088 44.0582 57.7933L49.7092 54.6877ZM25.1447 55.2577C26.2371 57.0911 27.2308 58.6411 29.62 58.6411C31.9046 58.6411 33.3458 57.7955 33.3458 54.5077V32.1411H40.2995V54.5966C40.2995 61.4077 36.0779 64.5077 29.916 64.5077C24.3484 64.5077 21.1241 61.7822 19.4843 58.4994L25.1447 55.2577Z" fill="var(--logo-3)"/>
</svg>
