<svg width="4vh" height="4vh" viewBox="0 0 46 44" fill="none" xmlns="http://www.w3.org/2000/svg">
<path d="M23.024 0.16902C29.5127 0.16902 36.0014 0.164795 42.4901 0.16902C43.4325 0.16902 44.279 0.473255 44.9778 1.17891C45.441 1.64372 45.7444 2.18458 45.8083 2.86066C45.8483 3.2832 45.8842 3.70998 45.8842 4.13253C45.8882 16.2554 45.8882 28.3784 45.8882 40.5055C45.8882 41.0379 45.7924 41.5619 45.5608 42.0309C45.2573 42.6521 44.7861 43.1211 44.1951 43.4422C43.5722 43.7803 42.9054 43.8775 42.2146 43.8732C29.325 43.869 16.4314 43.8732 3.54184 43.869C2.57951 43.869 1.725 43.531 1.02622 42.8253C0.694792 42.4915 0.451215 42.0816 0.311459 41.5999C0.191667 41.1858 0.151736 40.7675 0.151736 40.3407C0.151736 28.0572 0.155729 15.7653 0.147743 3.47758C0.147743 2.94094 0.255556 2.43811 0.479167 1.9733C0.866493 1.16201 1.52135 0.667628 2.31997 0.376069C2.77917 0.20705 3.25434 0.164795 3.7375 0.164795C10.1663 0.16902 16.5951 0.16902 23.024 0.16902ZM24.4894 19.4372C24.4814 19.2978 24.4774 19.2217 24.4734 19.1499C24.4734 18.3682 24.4734 17.5907 24.4734 16.809C24.4734 16.5174 24.4734 16.5132 24.1859 16.5132C22.1974 16.5132 20.2049 16.5132 18.2163 16.5132C17.9208 16.5132 17.9089 16.5259 17.9089 16.8428C17.9089 23.6036 17.9089 30.3643 17.9089 37.1251C17.9089 37.4251 17.9089 37.4251 18.2043 37.4251C20.2807 37.4251 22.3611 37.4251 24.4375 37.4251C24.4854 37.4251 24.5413 37.442 24.5773 37.4209C24.6292 37.3913 24.6891 37.3406 24.709 37.2857C24.733 37.2223 24.713 37.1463 24.717 37.0744C24.7689 33.4236 24.6132 29.7686 24.7969 26.1177C24.8368 25.336 24.9286 24.567 25.2521 23.8402C25.4677 23.3543 25.7392 22.9275 26.1306 22.5895C26.5818 22.1965 27.1089 21.9768 27.6799 21.8627C28.2668 21.7444 28.8538 21.7106 29.4488 21.7824C29.916 21.8415 30.3632 21.9768 30.7665 22.2261C31.4214 22.6359 31.8326 23.2824 32.0203 24.0388C32.176 24.6599 32.2719 25.3149 32.2759 25.9572C32.2998 29.6883 32.2918 33.4194 32.2878 37.1505C32.2878 37.366 32.3438 37.4294 32.5514 37.4294C34.6917 37.4209 36.828 37.4251 38.9682 37.4251C39.0321 37.4251 39.1 37.4167 39.1839 37.4125C39.1839 37.3026 39.1839 37.2139 39.1839 37.1209C39.1839 33.8969 39.1958 30.677 39.1799 27.453C39.1759 26.422 39.2278 25.391 39.116 24.3557C38.9962 23.2486 38.9602 22.1373 38.6208 21.0641C38.4092 20.388 38.1776 19.733 37.8063 19.133C37.5587 18.7316 37.2752 18.3724 36.9557 18.0344C36.4965 17.5484 35.9734 17.1682 35.3905 16.885C34.2764 16.34 33.0905 16.1076 31.8726 16.0442C31.4014 16.0188 30.9302 16.0273 30.459 16.0399C29.7563 16.0569 29.0615 16.1794 28.3986 16.416C27.8875 16.5977 27.3884 16.8343 26.9012 17.0921C26.1585 17.4808 25.5356 18.0428 25.0005 18.7147C24.8288 18.9217 24.6851 19.1584 24.4894 19.4372ZM6.90399 37.4209C7.00781 37.4209 7.08767 37.4209 7.16754 37.4209C9.2599 37.4209 11.3483 37.4209 13.4406 37.4209C13.7082 37.4209 13.7122 37.4209 13.7122 37.142C13.7122 30.3686 13.7122 23.5951 13.7122 16.8174C13.7122 16.509 13.7122 16.509 13.4167 16.509C11.3443 16.509 9.27587 16.509 7.20347 16.509C6.90399 16.509 6.90399 16.509 6.90399 16.8217C6.90399 23.5867 6.90399 30.3559 6.90399 37.1209C6.90399 37.2096 6.90399 37.2984 6.90399 37.4209ZM10.1583 6.14386C9.25191 6.17344 8.28559 6.50725 7.46701 7.32277C6.99983 7.78757 6.68438 8.33266 6.50469 8.95803C6.29306 9.68482 6.31302 10.4158 6.58854 11.1468C6.79219 11.6877 7.06771 12.1567 7.47101 12.5497C8.36545 13.4244 9.42361 13.7835 10.6295 13.7075C11.496 13.6483 12.2707 13.3356 12.9495 12.7863C13.6203 12.2412 14.0436 11.5018 14.2352 10.6313C14.359 10.0736 14.3111 9.52002 14.1514 8.95803C13.9517 8.26505 13.6003 7.69461 13.1012 7.22981C12.3186 6.50303 11.3922 6.14808 10.1583 6.14386Z" fill="#73777A"/>
</svg>
