<svg width="9vh" height="9vh" viewBox="0 0 95 82" fill="none" xmlns="http://www.w3.org/2000/svg">
<path d="M47.1716 3C25.6045 3 26.9513 11.1491 26.9513 11.1491L26.9754 19.5914H47.5562V22.1263H18.8007C18.8007 22.1263 5 20.7626 5 39.7232C5 58.6839 17.0456 58.0115 17.0456 58.0115H24.2345V49.213C24.2345 49.213 23.847 38.7177 36.0877 38.7177C48.3284 38.7177 56.5003 38.7177 56.5003 38.7177C56.5003 38.7177 67.9688 38.8792 67.9688 29.0603C67.9688 19.2414 67.9688 12.825 67.9688 12.825C67.9688 12.825 69.7101 3 47.1716 3ZM35.8232 8.67712C37.8709 8.67712 39.5259 10.1191 39.5259 11.9032C39.5259 13.6874 37.8709 15.1294 35.8232 15.1294C33.7756 15.1294 32.1206 13.6874 32.1206 11.9032C32.1206 10.1191 33.7756 8.67712 35.8232 8.67712Z" fill="var(--logo-1)"/>
<path d="M48.2973 77C69.8643 77 68.5175 68.8509 68.5175 68.8509L68.4934 60.4086H47.9126V57.8737H76.6681C76.6681 57.8737 90.4688 59.2374 90.4688 40.2768C90.4688 21.3161 78.4232 21.9885 78.4232 21.9885H71.2344V30.787C71.2344 30.787 71.6219 41.2823 59.3811 41.2823C47.1404 41.2823 38.9685 41.2823 38.9685 41.2823C38.9685 41.2823 27.5 41.1208 27.5 50.9397C27.5 60.7586 27.5 67.175 27.5 67.175C27.5 67.175 25.7588 77 48.2973 77ZM59.6456 71.3229C57.5979 71.3229 55.943 69.8809 55.943 68.0968C55.943 66.3126 57.5979 64.8706 59.6456 64.8706C61.6932 64.8706 63.3482 66.3126 63.3482 68.0968C63.3482 69.8809 61.6932 71.3229 59.6456 71.3229Z" fill="var(--logo-1)"/>
</svg>
