<svg width="80" height="80" viewBox="0 0 80 80" fill="none" xmlns="http://www.w3.org/2000/svg">
<path d="M80 40C80 62.0914 62.0914 80 40 80C17.9086 80 0 62.0914 0 40C0 17.9086 17.9086 0 40 0C62.0914 0 80 17.9086 80 40Z" fill="#20232A"/>
<path d="M73 39.5065C73 35.2664 67.3587 31.2481 58.7097 28.7562C60.7057 20.4587 59.8186 13.8572 55.9099 11.7436C55.009 11.2479 53.9556 11.013 52.8051 11.013V13.9224C53.4427 13.9224 53.9556 14.0398 54.3852 14.2616C56.2703 15.2792 57.0881 19.154 56.4505 24.1378C56.298 25.3642 56.0485 26.6558 55.7436 27.9734C53.0269 27.3472 50.0607 26.8645 46.9421 26.5514C45.0709 24.1378 43.1305 21.946 41.1761 20.0282C45.6947 16.0751 49.936 13.9094 52.819 13.9094V11C49.0073 11 44.0175 13.5571 38.9723 17.9929C33.927 13.5832 28.9372 11.0522 25.1256 11.0522V13.9615C27.9947 13.9615 32.2499 16.1142 36.7684 20.0412C34.828 21.959 32.8875 24.1378 31.044 26.5514C27.9115 26.8645 24.9454 27.3472 22.2287 27.9865C21.9099 26.6818 21.6743 25.4163 21.5079 24.203C20.8565 19.2193 21.6604 15.3445 23.5316 14.3138C23.9474 14.079 24.488 13.9746 25.1256 13.9746V11.0652C23.9613 11.0652 22.9079 11.3001 21.9931 11.7958C18.0982 13.9094 17.225 20.4978 19.2348 28.7693C10.6135 31.2742 5 35.2795 5 39.5065C5 43.7466 10.6413 47.7649 19.2903 50.2568C17.2943 58.5544 18.1814 65.1559 22.0901 67.2694C22.991 67.7652 24.0444 68 25.2087 68C29.0204 68 34.0102 65.4429 39.0554 61.0071C44.1007 65.4168 49.0905 67.9478 52.9022 67.9478C54.0664 67.9478 55.1199 67.713 56.0347 67.2172C59.9295 65.1037 60.8027 58.5152 58.7929 50.2438C67.3865 47.7519 73 43.7336 73 39.5065ZM54.9535 30.8045C54.4407 32.4875 53.8031 34.2227 53.0823 35.9579C52.5141 34.9142 51.9181 33.8704 51.2666 32.8267C50.629 31.783 49.9499 30.7654 49.2707 29.7739C51.2389 30.0478 53.1378 30.387 54.9535 30.8045ZM48.6054 44.699C47.5243 46.4603 46.4154 48.1302 45.265 49.6828C43.1998 49.8524 41.1068 49.9437 39 49.9437C36.9071 49.9437 34.8141 49.8524 32.7627 49.6958C31.6123 48.1433 30.4896 46.4864 29.4085 44.7382C28.3551 43.0291 27.3987 41.2939 26.5255 39.5457C27.3848 37.7974 28.3551 36.0492 29.3946 34.3401C30.4757 32.5788 31.5846 30.9089 32.735 29.3564C34.8002 29.1868 36.8932 29.0954 39 29.0954C41.0929 29.0954 43.1859 29.1868 45.2373 29.3433C46.3877 30.8959 47.5104 32.5528 48.5915 34.301C49.6449 36.0101 50.6013 37.7452 51.4745 39.4935C50.6013 41.2417 49.6449 42.9899 48.6054 44.699ZM53.0823 43.003C53.8308 44.7512 54.4684 46.4994 54.9951 48.1955C53.1794 48.613 51.2666 48.9652 49.2845 49.2392C49.9637 48.2346 50.6429 47.2039 51.2805 46.1472C51.9181 45.1035 52.5141 44.0467 53.0823 43.003ZM39.0277 56.9235C37.7387 55.6711 36.4497 54.2751 35.1745 52.7487C36.4219 52.8009 37.6971 52.84 38.9861 52.84C40.289 52.84 41.5781 52.8139 42.8394 52.7487C41.5919 54.2751 40.3029 55.6711 39.0277 56.9235ZM28.7154 49.2392C26.7472 48.9652 24.8483 48.626 23.0326 48.2085C23.5455 46.5255 24.183 44.7903 24.9038 43.0552C25.4721 44.0989 26.0681 45.1426 26.7195 46.1863C27.371 47.23 28.0363 48.2477 28.7154 49.2392ZM38.9584 22.0895C40.2475 23.342 41.5365 24.7379 42.8117 26.2644C41.5642 26.2122 40.289 26.173 39 26.173C37.6971 26.173 36.4081 26.1991 35.1468 26.2644C36.3942 24.7379 37.6832 23.342 38.9584 22.0895ZM28.7016 29.7739C28.0224 30.7784 27.3433 31.8091 26.7057 32.8659C26.0681 33.9096 25.4721 34.9533 24.9038 35.997C24.1553 34.2488 23.5177 32.5006 22.991 30.8045C24.8068 30.4001 26.7195 30.0478 28.7016 29.7739ZM16.1578 46.108C11.2511 44.138 8.07705 41.5548 8.07705 39.5065C8.07705 37.4582 11.2511 34.862 16.1578 32.905C17.3498 32.4223 18.6527 31.9918 19.9971 31.5873C20.7872 34.1444 21.8267 36.8059 23.1158 39.5326C21.8406 42.2463 20.8149 44.8947 20.0387 47.4388C18.6665 47.0343 17.3636 46.5908 16.1578 46.108ZM23.6148 64.7514C21.7297 63.7338 20.9119 59.859 21.5495 54.8753C21.702 53.6489 21.9515 52.3573 22.2564 51.0396C24.9731 51.6658 27.9393 52.1485 31.0579 52.4617C32.9291 54.8753 34.8695 57.0671 36.8239 58.9849C32.3053 62.938 28.064 65.1037 25.181 65.1037C24.5573 65.0906 24.0306 64.9732 23.6148 64.7514ZM56.4921 54.81C57.1435 59.7938 56.3396 63.6686 54.4684 64.6992C54.0526 64.9341 53.512 65.0385 52.8744 65.0385C50.0053 65.0385 45.7501 62.8858 41.2316 58.9588C43.172 57.041 45.1125 54.8622 46.956 52.4486C50.0885 52.1355 53.0546 51.6528 55.7713 51.0135C56.0901 52.3312 56.3396 53.5967 56.4921 54.81ZM61.8284 46.108C60.6364 46.5908 59.3335 47.0213 57.989 47.4257C57.1989 44.8686 56.1594 42.2071 54.8704 39.4804C56.1455 36.7668 57.1712 34.1183 57.9474 31.5743C59.3196 31.9787 60.6225 32.4223 61.8422 32.905C66.7489 34.875 69.9229 37.4582 69.9229 39.5065C69.9091 41.5548 66.735 44.1511 61.8284 46.108Z" fill="#61DAFB"/>
<path d="M39.5 45C42.5376 45 45 42.5376 45 39.5C45 36.4624 42.5376 34 39.5 34C36.4624 34 34 36.4624 34 39.5C34 42.5376 36.4624 45 39.5 45Z" fill="#61DAFB"/>
</svg>
