<svg width="75" height="74" viewBox="0 0 75 74" fill="none" xmlns="http://www.w3.org/2000/svg">
<path d="M36.9268 48.7674H34.1318C33.4485 48.7674 32.8975 48.2233 32.8975 47.5487H30.4243C30.4243 49.5683 32.0863 51.2093 34.1318 51.2136H36.9268C36.9356 51.2136 36.9444 51.2136 36.9533 51.2136C38.8269 51.2136 40.3478 49.7119 40.3478 47.8621C40.3478 46.3821 39.3735 45.1242 38.0245 44.6846L38.0025 44.6759L33.5146 43.2134C33.1487 43.0872 32.893 42.752 32.893 42.3516C32.893 41.8554 33.2986 41.4462 33.8012 41.4419H36.5962C37.2795 41.4419 37.8305 41.9903 37.835 42.665H40.3081C40.3081 40.641 38.6461 39.0044 36.5962 39H33.8012C33.7924 39 33.788 39 33.7791 39C31.9055 39 30.3846 40.5017 30.3846 42.3516C30.3846 43.8315 31.3589 45.0894 32.7079 45.529L32.7299 45.5377L37.2045 47.0133C37.5749 47.1352 37.835 47.4747 37.835 47.8751C37.835 48.3757 37.425 48.7805 36.918 48.7805H36.9136L36.9268 48.7674Z" fill="var(--logo-1)"/>
<path d="M58.9652 51.2093H65.1503V48.7631H60.204V39H57.7308V49.9862C57.7264 50.6608 58.2819 51.2093 58.9652 51.2093Z" fill="var(--logo-1)"/>
<path d="M45.4557 51.2093H51.5483C51.5968 51.2093 51.6453 51.2093 51.6893 51.2093L52.5754 52.0841L54.3212 50.3561L53.4395 49.4856C53.4395 49.4421 53.4395 49.3942 53.4395 49.3463V40.876C53.4395 39.8401 52.5887 39 51.5394 39H45.4513C44.4021 39 43.5513 39.8401 43.5513 40.876V49.3333C43.5601 50.3692 44.4065 51.2093 45.4557 51.2093ZM46.0288 41.4418H50.9752V47.0481L50.6093 46.6912L48.8635 48.4148L49.225 48.7718H46.0288V41.4418Z" fill="var(--logo-1)"/>
<path d="M68.8919 30.5986H53.2615C53.4802 30.0047 53.6058 29.3162 53.6105 28.5962V11.7727C53.6105 4.13097 39.8042 0 26.8076 0C13.8109 0 0 4.13097 0 11.7727V28.5909C0.00465328 29.1953 0.0930657 29.7682 0.255931 30.3095L0.246624 30.2727H0V45.4091C0.00465328 46.0135 0.0930657 46.5864 0.255931 47.1277L0.246624 47.0909H0V62.2273C0 69.8743 13.8109 74 26.8076 74C39.8042 74 53.6105 69.8743 53.6105 62.2273V60.0724H68.8919C69.9994 60.0724 70.8974 59.0581 70.8974 57.8125V32.8585C70.8928 31.6129 69.9994 30.5986 68.8919 30.5986ZM25.9141 30.5986C24.8067 30.5986 23.9086 31.6129 23.9086 32.8585V36.9369C11.5076 36.3588 2.9781 32.1753 2.9781 28.5962V17.4016C7.73841 21.4222 17.4824 23.5507 26.8029 23.5507C36.1234 23.5507 45.8674 21.4222 50.6277 17.4016V28.5909C50.6277 29.2321 50.3392 29.8996 49.7669 30.5986H37.8405H25.9141ZM2.98276 34.2092C7.24516 37.8251 15.514 39.9169 23.9132 40.3006V53.7551C11.5122 53.177 2.98276 48.9935 2.98276 45.4143V34.2092ZM26.8076 3.36364C41.5678 3.36364 50.6324 8.26193 50.6324 11.7727C50.6324 15.2835 41.5678 20.1818 26.8076 20.1818C12.0473 20.1818 2.98276 15.2835 2.98276 11.7675C2.98276 8.25142 12.0473 3.36889 26.8076 3.36364ZM50.6324 62.2325C50.6324 65.7433 41.5678 70.6416 26.8076 70.6416C12.0473 70.6416 2.98276 65.7433 2.98276 62.2325V51.0274C7.24516 54.6433 15.514 56.7351 23.9132 57.1187V57.8125C23.9132 59.0633 24.8113 60.0724 25.9188 60.0724H50.637L50.6324 62.2325ZM68.2823 57.1293H26.5237V33.547H68.2823V57.1293Z" fill="var(--logo-1)"/>
</svg>