<svg width="78" height="78" viewBox="0 0 78 78" fill="none" xmlns="http://www.w3.org/2000/svg">
<rect x="27" y="33" width="49" height="29" fill="white"/>
<rect x="2" y="11" width="55" height="57" fill="white"/>
<path d="M41.9555 49.5639H39.1959C38.5212 49.5639 37.9771 49.0198 37.9771 48.3452H35.5353C35.5353 50.3648 37.1762 52.0058 39.1959 52.0101H41.9555C41.9642 52.0101 41.9729 52.0101 41.9816 52.0101C43.8315 52.0101 45.3332 50.5084 45.3332 48.6586C45.3332 47.1786 44.3712 45.9207 43.0393 45.4811L43.0175 45.4724L38.5865 44.0099C38.2252 43.8837 37.9728 43.5485 37.9728 43.1481C37.9728 42.6519 38.3732 42.2427 38.8694 42.2384H41.629C42.3037 42.2384 42.8478 42.7868 42.8521 43.4615H45.294C45.294 41.4375 43.653 39.8009 41.629 39.7965H38.8694C38.8607 39.7965 38.8564 39.7965 38.8477 39.7965C36.9978 39.7965 35.4961 41.2982 35.4961 43.1481C35.4961 44.628 36.458 45.8859 37.79 46.3255L37.8117 46.3342L42.2297 47.8098C42.5953 47.9317 42.8521 48.2712 42.8521 48.6716C42.8521 49.1722 42.4473 49.577 41.9468 49.577H41.9424L41.9555 49.5639Z" fill="black"/>
<path d="M59.9494 52.0102H66.0563V49.564H61.1725V39.8009H58.7307V50.7871C58.7263 51.4617 59.2748 52.0102 59.9494 52.0102Z" fill="black"/>
<path d="M48.3844 52.0102H54.3998C54.4477 52.0102 54.4955 52.0102 54.5391 52.0102L55.4139 52.885L57.1376 51.157L56.2671 50.2865C56.2671 50.243 56.2671 50.1951 56.2671 50.1472V41.6769C56.2671 40.641 55.427 39.8009 54.3911 39.8009H48.38C47.3441 39.8009 46.504 40.641 46.504 41.6769V50.1342C46.5127 51.1701 47.3484 52.0102 48.3844 52.0102ZM48.9502 42.2428H53.8339V47.849L53.4727 47.4921L51.749 49.2157L52.1059 49.5727H48.9502V42.2428Z" fill="black"/>
<path d="M75.7935 32.2526H58.5973C58.8379 31.6266 58.9761 30.9008 58.9812 30.1419V12.4091C58.9812 4.35426 43.7918 0 29.4932 0C15.1945 0 0 4.35426 0 12.4091V30.1364C0.00511945 30.7734 0.102389 31.3773 0.28157 31.9479L0.271331 31.9091H0V47.8636C0.00511945 48.5007 0.102389 49.1045 0.28157 49.6751L0.271331 49.6364H0V65.5909C0 73.6513 15.1945 78 29.4932 78C43.7918 78 58.9812 73.6513 58.9812 65.5909V63.3196H75.7935C77.0119 63.3196 78 62.2504 78 60.9375V34.6347C77.9949 33.3217 77.0119 32.2526 75.7935 32.2526ZM28.5102 32.2526C27.2918 32.2526 26.3038 33.3217 26.3038 34.6347V38.9335C12.6604 38.3241 3.27645 33.9145 3.27645 30.1419V18.3422C8.51365 22.5801 19.2338 24.8237 29.4881 24.8237C39.7423 24.8237 50.4625 22.5801 55.6997 18.3422V30.1364C55.6997 30.8122 55.3822 31.5158 54.7526 32.2526H41.6314H28.5102ZM3.28157 36.0584C7.97099 39.8697 17.0683 42.0746 26.3089 42.479V56.6608C12.6655 56.0514 3.28157 51.6418 3.28157 47.8692V36.0584ZM29.4932 3.54545C45.7321 3.54545 55.7048 8.70852 55.7048 12.4091C55.7048 16.1097 45.7321 21.2727 29.4932 21.2727C13.2543 21.2727 3.28157 16.1097 3.28157 12.4035C3.28157 8.69744 13.2543 3.55099 29.4932 3.54545ZM55.7048 65.5964C55.7048 69.297 45.7321 74.4601 29.4932 74.4601C13.2543 74.4601 3.28157 69.297 3.28157 65.5964V53.7857C7.97099 57.597 17.0683 59.8018 26.3089 60.2062V60.9375C26.3089 62.256 27.2969 63.3196 28.5154 63.3196H55.7099L55.7048 65.5964ZM75.1229 60.2173H29.1809V35.3604H75.1229V60.2173Z" fill="black"/>
</svg>
