<svg width="43" height="34" viewBox="0 0 53 44" fill="none" xmlns="http://www.w3.org/2000/svg">
<path d="M0.118225 39.0392C0.110209 39.031 0.102193 39.0229 0.0941772 39.0147C0.102193 39.0229 0.110209 39.0269 0.122233 39.0351C0.17033 39.0758 0.21041 39.1206 0.262514 39.1532C4.76752 42.0784 9.68536 43.6592 14.992 43.9525C17.4609 44.0869 19.9258 43.9403 22.3627 43.4799C28.7074 42.278 34.1423 39.3325 38.5952 34.4843C40.5351 32.3699 42.1703 30.0273 43.481 27.4525C46.0421 22.4169 47.3367 17.0677 47.1964 11.364C47.1924 11.1643 47.3006 10.9077 47.4409 10.7732C48.3547 9.90953 49.3487 9.12731 50.2024 8.20656C51.02 7.31842 51.6934 6.29175 52.4349 5.32619C52.4469 5.32212 52.4629 5.31805 52.4709 5.30582C52.4749 5.30175 52.4709 5.28545 52.4709 5.27731C52.4589 5.2936 52.4509 5.31397 52.4389 5.33027C52.2785 5.36694 52.1142 5.38731 51.9579 5.44434C51.1363 5.72953 50.3306 6.0799 49.489 6.2999C48.5511 6.54434 47.5812 6.66656 46.6272 6.84582L46.6353 6.85397C46.7395 6.76434 46.8357 6.66249 46.9479 6.58508C48.3908 5.56249 49.521 4.24656 50.3427 2.65768C50.6272 2.1036 50.8397 1.51286 51.0842 0.938416C50.9078 0.918046 50.8357 0.946565 50.7715 0.983231C48.8998 2.09953 46.9078 2.88582 44.7996 3.38693C44.4429 3.47249 44.1864 3.43582 43.8978 3.15064C41.4128 0.726565 38.4589 -0.340843 35.0601 0.103231C31.1924 0.61249 28.3988 2.74323 26.6553 6.31212C25.8417 7.97434 25.489 9.76286 25.6292 11.6329C25.6773 12.2725 25.7375 12.908 25.8016 13.6414C16.8276 12.9814 9.48897 9.09879 3.66532 2.03842C2.26251 4.61323 1.88576 7.2736 2.47895 10.0684C3.07213 12.8673 4.58716 15.0632 6.91181 16.8314C5.14428 16.754 3.62524 16.2773 2.14227 15.4543C2.09017 17.3977 2.50299 19.1455 3.34869 20.7669C4.9038 23.7451 7.30861 25.6314 10.491 26.5318C9.73346 26.6906 8.98796 26.8332 8.23446 26.8536C7.47694 26.878 6.71542 26.7803 5.86572 26.7273C7.6573 31.4451 10.9439 34.0036 15.7936 34.4395C15.7816 34.4721 15.7816 34.5088 15.7615 34.5251C15.7054 34.578 15.6413 34.6229 15.5812 34.6718C11.7535 37.601 7.45289 39.084 2.68736 39.1247C1.83366 39.1329 0.975941 39.0718 0.118225 39.0392Z" fill="#73777A"/>
<path d="M46.6273 6.84036C47.5812 6.66518 48.5512 6.53888 49.489 6.29444C50.3267 6.07851 51.1323 5.72407 51.958 5.43888C52.1143 5.38592 52.2786 5.36148 52.4389 5.32481L52.4309 5.32074C51.6934 6.28629 51.0161 7.31296 50.1985 8.20111C49.3488 9.12592 48.3508 9.90407 47.4369 10.7678C47.2967 10.9022 47.1884 11.163 47.1924 11.3585C47.3327 17.0622 46.0421 22.4155 43.477 27.447C42.1664 30.0218 40.5311 32.3604 38.5912 34.4789C34.1423 39.327 28.7035 42.2726 22.3588 43.4744C19.9219 43.9348 17.457 44.0815 14.988 43.947C9.68543 43.6537 4.76359 42.073 0.258577 39.1478C0.206473 39.1152 0.166393 39.0704 0.118296 39.0296L0.114288 39.0337C0.972004 39.0622 1.82972 39.1274 2.68343 39.1193C7.44495 39.0744 11.7456 37.5915 15.5772 34.6704C15.6373 34.6215 15.7015 34.5767 15.7576 34.5237C15.7776 34.5074 15.7776 34.4707 15.7896 34.4381C10.9399 33.9981 7.65337 31.4396 5.8698 26.73C6.7195 26.7789 7.48102 26.8767 8.23854 26.8563C8.98804 26.8359 9.73754 26.6933 10.4951 26.5344C7.31269 25.6341 4.90788 23.7478 3.35277 20.7696C2.50707 19.1441 2.09024 17.3963 2.14635 15.453C3.62932 16.2759 5.14435 16.7526 6.91589 16.83C4.58723 15.0618 3.07621 12.8659 2.48303 10.067C1.88583 7.27222 2.26259 4.61185 3.66539 2.03703C9.48904 9.0974 16.8277 12.98 25.7936 13.64C25.7295 12.9067 25.6694 12.2711 25.6213 11.6315C25.485 9.76148 25.8377 7.97296 26.6474 6.31073C28.3908 2.74185 31.1884 0.607032 35.0522 0.101847C38.455 -0.346301 41.4089 0.721106 43.8898 3.14925C44.1784 3.43444 44.4349 3.47111 44.7916 3.38555C46.8959 2.88444 48.8918 2.09407 50.7636 0.981847C50.8277 0.941106 50.8999 0.912588 51.0762 0.937032C50.8317 1.51148 50.6233 2.10629 50.3347 2.65629C49.5131 4.24518 48.3868 5.56111 46.9399 6.5837C46.8277 6.66111 46.7315 6.76296 46.6273 6.85259C46.6153 6.85666 46.5993 6.86073 46.5872 6.86481C46.5832 6.86888 46.5832 6.88111 46.5792 6.89333C46.5993 6.87296 46.6113 6.85666 46.6273 6.84036Z" fill="#73777A"/>
<path d="M52.4348 5.32884C52.4466 5.31255 52.4545 5.29218 52.4663 5.27588C52.4663 5.28403 52.4702 5.30032 52.4663 5.3044C52.4584 5.31255 52.4427 5.31662 52.4309 5.32477C52.4269 5.32477 52.4348 5.32884 52.4348 5.32884Z" fill="#73777A"/>
<path d="M0.121714 39.0343C0.113846 39.0261 0.105979 39.0221 0.0941772 39.0139C0.102045 39.0221 0.109913 39.0302 0.11778 39.0384C0.11778 39.0384 0.121714 39.0343 0.121714 39.0343Z" fill="#73777A"/>
<path d="M46.6265 6.84033C46.6147 6.85663 46.599 6.87292 46.5872 6.88922C46.5872 6.88107 46.5872 6.86477 46.595 6.8607C46.6068 6.85255 46.6186 6.85255 46.6344 6.84848C46.6304 6.84848 46.6265 6.84033 46.6265 6.84033Z" fill="#73777A"/>
</svg>
