<svg width="54" height="44" viewBox="0 0 54 44" fill="none" xmlns="http://www.w3.org/2000/svg">
<g clip-path="url(#clip0)">
<path d="M1.11823 39.0392C1.11021 39.031 1.10219 39.0229 1.09418 39.0147C1.10219 39.0229 1.11021 39.0269 1.12223 39.0351C1.17033 39.0758 1.21041 39.1206 1.26251 39.1532C5.76752 42.0784 10.6854 43.6592 15.992 43.9525C18.4609 44.0869 20.9258 43.9403 23.3627 43.4799C29.7074 42.278 35.1423 39.3325 39.5952 34.4843C41.5351 32.3699 43.1703 30.0273 44.481 27.4525C47.0421 22.4169 48.3367 17.0677 48.1964 11.364C48.1924 11.1643 48.3006 10.9077 48.4409 10.7732C49.3547 9.90953 50.3487 9.12731 51.2024 8.20656C52.02 7.31842 52.6934 6.29175 53.4349 5.32619C53.4469 5.32212 53.4629 5.31805 53.4709 5.30582C53.4749 5.30175 53.4709 5.28545 53.4709 5.27731C53.4589 5.2936 53.4509 5.31397 53.4389 5.33027C53.2785 5.36694 53.1142 5.38731 52.9579 5.44434C52.1363 5.72953 51.3306 6.0799 50.489 6.2999C49.5511 6.54434 48.5812 6.66656 47.6272 6.84582L47.6353 6.85397C47.7395 6.76434 47.8357 6.66249 47.9479 6.58508C49.3908 5.56249 50.521 4.24656 51.3427 2.65768C51.6272 2.1036 51.8397 1.51286 52.0842 0.938416C51.9078 0.918046 51.8357 0.946565 51.7715 0.983231C49.8998 2.09953 47.9078 2.88582 45.7996 3.38693C45.4429 3.47249 45.1864 3.43582 44.8978 3.15064C42.4128 0.726565 39.4589 -0.340843 36.0601 0.103231C32.1924 0.61249 29.3988 2.74323 27.6553 6.31212C26.8417 7.97434 26.489 9.76286 26.6292 11.6329C26.6773 12.2725 26.7375 12.908 26.8016 13.6414C17.8276 12.9814 10.489 9.09879 4.66532 2.03842C3.26251 4.61323 2.88576 7.2736 3.47895 10.0684C4.07213 12.8673 5.58716 15.0632 7.91181 16.8314C6.14428 16.754 4.62524 16.2773 3.14227 15.4543C3.09017 17.3977 3.50299 19.1455 4.34869 20.7669C5.9038 23.7451 8.30861 25.6314 11.491 26.5318C10.7335 26.6906 9.98796 26.8332 9.23446 26.8536C8.47694 26.878 7.71542 26.7803 6.86572 26.7273C8.6573 31.4451 11.9439 34.0036 16.7936 34.4395C16.7816 34.4721 16.7816 34.5088 16.7615 34.5251C16.7054 34.578 16.6413 34.6229 16.5812 34.6718C12.7535 37.601 8.45289 39.084 3.68736 39.1247C2.83366 39.1329 1.97594 39.0718 1.11823 39.0392Z" fill="#73777A"/>
<path d="M47.6273 6.84036C48.5812 6.66518 49.5512 6.53888 50.489 6.29444C51.3267 6.07851 52.1323 5.72407 52.958 5.43888C53.1143 5.38592 53.2786 5.36148 53.4389 5.32481L53.4309 5.32074C52.6934 6.28629 52.0161 7.31296 51.1985 8.20111C50.3488 9.12592 49.3508 9.90407 48.4369 10.7678C48.2967 10.9022 48.1884 11.163 48.1924 11.3585C48.3327 17.0622 47.0421 22.4155 44.477 27.447C43.1664 30.0218 41.5311 32.3604 39.5912 34.4789C35.1423 39.327 29.7035 42.2726 23.3588 43.4744C20.9219 43.9348 18.457 44.0815 15.988 43.947C10.6854 43.6537 5.76359 42.073 1.25858 39.1478C1.20647 39.1152 1.16639 39.0704 1.1183 39.0296L1.11429 39.0337C1.972 39.0622 2.82972 39.1274 3.68343 39.1193C8.44495 39.0744 12.7456 37.5915 16.5772 34.6704C16.6373 34.6215 16.7015 34.5767 16.7576 34.5237C16.7776 34.5074 16.7776 34.4707 16.7896 34.4381C11.9399 33.9981 8.65337 31.4396 6.8698 26.73C7.7195 26.7789 8.48102 26.8767 9.23854 26.8563C9.98804 26.8359 10.7375 26.6933 11.4951 26.5344C8.31269 25.6341 5.90788 23.7478 4.35277 20.7696C3.50707 19.1441 3.09024 17.3963 3.14635 15.453C4.62932 16.2759 6.14435 16.7526 7.91589 16.83C5.58723 15.0618 4.07621 12.8659 3.48303 10.067C2.88583 7.27222 3.26259 4.61185 4.66539 2.03703C10.489 9.0974 17.8277 12.98 26.7936 13.64C26.7295 12.9067 26.6694 12.2711 26.6213 11.6315C26.485 9.76148 26.8377 7.97296 27.6474 6.31073C29.3908 2.74185 32.1884 0.607032 36.0522 0.101847C39.455 -0.346301 42.4089 0.721106 44.8898 3.14925C45.1784 3.43444 45.4349 3.47111 45.7916 3.38555C47.8959 2.88444 49.8918 2.09407 51.7636 0.981847C51.8277 0.941106 51.8999 0.912588 52.0762 0.937032C51.8317 1.51148 51.6233 2.10629 51.3347 2.65629C50.5131 4.24518 49.3868 5.56111 47.9399 6.5837C47.8277 6.66111 47.7315 6.76296 47.6273 6.85259C47.6153 6.85666 47.5993 6.86073 47.5872 6.86481C47.5832 6.86888 47.5832 6.88111 47.5792 6.89333C47.5993 6.87296 47.6113 6.85666 47.6273 6.84036Z" fill="#73777A"/>
<path d="M53.4348 5.32884C53.4466 5.31255 53.4545 5.29218 53.4663 5.27588C53.4663 5.28403 53.4702 5.30032 53.4663 5.3044C53.4584 5.31255 53.4427 5.31662 53.4309 5.32477C53.4269 5.32477 53.4348 5.32884 53.4348 5.32884Z" fill="#73777A"/>
<path d="M1.12171 39.0343C1.11385 39.0261 1.10598 39.0221 1.09418 39.0139C1.10204 39.0221 1.10991 39.0302 1.11778 39.0384C1.11778 39.0384 1.12171 39.0343 1.12171 39.0343Z" fill="#73777A"/>
<path d="M47.6265 6.84033C47.6147 6.85663 47.599 6.87292 47.5872 6.88922C47.5872 6.88107 47.5872 6.86477 47.595 6.8607C47.6068 6.85255 47.6186 6.85255 47.6344 6.84848C47.6304 6.84848 47.6265 6.84033 47.6265 6.84033Z" fill="#73777A"/>
</g>
<defs>
<clipPath id="clip0">
<rect width="54" height="44" fill="white"/>
</clipPath>
</defs>
</svg>
