<svg width="100%" height="100%" viewBox="0 0 139 66" fill="none" xmlns="http://www.w3.org/2000/svg">
<path d="M139 0.5C139 17.8717 131.678 34.5319 118.644 46.8155C105.61 59.0991 87.9326 66 69.5 66C51.0675 66 33.3899 59.0991 20.3561 46.8155C7.32231 34.5319 2.78324e-06 17.8717 0 0.50001L69.5 0.5H139Z" fill="#231D34"/>
<path d="M139 0.5C139 17.8717 131.678 34.5319 118.644 46.8155C105.61 59.0991 87.9326 66 69.5 66C51.0675 66 33.3899 59.0991 20.3561 46.8155C7.32231 34.5319 2.78324e-06 17.8717 0 0.50001L69.5 0.5H139Z" fill="#231D34"/>
</svg>
