<svg width="87" height="80" viewBox="0 0 87 80" fill="none" xmlns="http://www.w3.org/2000/svg">
<g filter="url(#filter0_d)">
<path d="M43.3784 3.09094L4.262 14.9848L10.4434 59.2637L43.4198 74.9232L76.5665 59.0515L82.7454 14.7742L43.3784 3.09094Z" fill="#B3B3B3"/>
<path d="M78.8439 17.3332L43.2871 6.85693V71.1818L73.0852 56.9331L78.8436 17.3332H78.8439Z" fill="#DBE1E8"/>
<path d="M8.65143 17.522L13.9484 57.1225L43.2864 71.1819V6.85596L8.65174 17.5218L8.65143 17.522Z" fill="#F8F8F8"/>
<path d="M53.0747 41.1003L43.2871 45.0549H32.9711L28.1219 55.5346L19.1023 55.6785L43.2871 9.19299L53.0747 41.1005V41.1003ZM52.1286 39.1094L43.3522 24.0976L36.153 38.851H43.2868L52.1286 39.1097V39.1094Z" fill="#2A2E35"/>
<path d="M43.2868 9.19263L43.3516 24.0975L51.52 38.8624H43.3053L43.2868 45.0452L54.6461 45.0545L59.9552 55.68L68.5856 55.8181L43.2868 9.19263Z" fill="#12181B"/>
</g>
<defs>
<filter id="filter0_d" x="0" y="0" width="87" height="80" filterUnits="userSpaceOnUse" color-interpolation-filters="sRGB">
<feFlood flood-opacity="0" result="BackgroundImageFix"/>
<feColorMatrix in="SourceAlpha" type="matrix" values="0 0 0 0 0 0 0 0 0 0 0 0 0 0 0 0 0 0 127 0"/>
<feOffset dy="1"/>
<feGaussianBlur stdDeviation="2"/>
<feColorMatrix type="matrix" values="0 0 0 0 0 0 0 0 0 0 0 0 0 0 0 0 0 0 0.25 0"/>
<feBlend mode="normal" in2="BackgroundImageFix" result="effect1_dropShadow"/>
<feBlend mode="normal" in="SourceGraphic" in2="effect1_dropShadow" result="shape"/>
</filter>
</defs>
</svg>
