<svg width="8vh" height="8vh" viewBox="0 0 80 72" fill="none" xmlns="http://www.w3.org/2000/svg">
<path d="M80 0L72.7118 64.7925L39.951 72L7.28049 64.8026L0 0H80Z" fill="var(--logo-1)"/>
<path d="M66.4723 60.6666L72.7005 5.29846H40V66.4908L66.4723 60.6666Z" fill="var(--logo-1)"/>
<path d="M16.6904 29.3329L17.588 37.2806H40V29.3329H16.6904Z" fill="var(--logo-3)"/>
<path d="M40 13.2465H39.9654H14.8867L15.7971 21.1943H40V13.2465Z" fill="var(--logo-3)"/>
<path d="M40 58.2432V49.9742L39.9561 49.9834L28.8021 47.5934L28.0891 41.2546H22.6692H18.0355L19.4386 53.7338L39.9539 58.2533L40 58.2432Z" fill="var(--logo-3)"/>
<path d="M52.2979 37.2806L51.1354 47.5883L39.9654 49.9808V58.2495L60.497 53.7338L60.6476 52.391L63.0011 31.4672L63.2455 29.333L65.0535 13.2465H39.9654V21.1943H54.0777L53.1664 29.333H39.9654V37.2806H52.2979Z" fill="var(--logo-3)"/>
</svg>
