<svg width="78" height="78" viewBox="0 0 87 82" fill="none" xmlns="http://www.w3.org/2000/svg">
<g filter="url(#filter0_d)">
<path d="M11.1818 69.4844L4 3H83L75.8182 69.4844L43.4124 77" fill="#E34F26"/>
<path d="M43.5876 71.2188L69.6874 65.293L75.8182 8.34766H43.5876" fill="#EF652A"/>
<path d="M43.5876 33.0625H30.4501L29.5743 24.6797H43.5876V16.5859H43.4124H18.714L18.8891 18.7539L21.3415 41.3008H43.5876V33.0625ZM43.5876 54.3086H43.4124L32.3769 51.8516L31.6763 45.3477H26.4213H21.867L23.0931 58.2109L43.4124 62.8359H43.5876V54.3086Z" fill="#EBEBEB"/>
<path d="M43.4124 33.0625V41.3008H55.6741L54.4479 51.8516L43.4124 54.3086V62.8359L63.7317 58.2109L63.9069 56.7656L66.184 35.2305L66.5344 33.0625H63.7317H43.4124ZM43.4124 16.5859V21.6445V24.6797H67.4102L67.5854 22.9453L68.1109 18.7539L68.286 16.5859H43.4124Z" fill="white"/>
</g>
<defs>
<filter id="filter0_d" x="0" y="0" width="87" height="82" filterUnits="userSpaceOnUse" color-interpolation-filters="sRGB">
<feFlood flood-opacity="0" result="BackgroundImageFix"/>
<feColorMatrix in="SourceAlpha" type="matrix" values="0 0 0 0 0 0 0 0 0 0 0 0 0 0 0 0 0 0 127 0"/>
<feOffset dy="1"/>
<feGaussianBlur stdDeviation="2"/>
<feColorMatrix type="matrix" values="0 0 0 0 0 0 0 0 0 0 0 0 0 0 0 0 0 0 0.25 0"/>
<feBlend mode="normal" in2="BackgroundImageFix" result="effect1_dropShadow"/>
<feBlend mode="normal" in="SourceGraphic" in2="effect1_dropShadow" result="shape"/>
</filter>
</defs>
</svg>
