<svg width="81" height="83" viewBox="0 0 81 83" fill="none" xmlns="http://www.w3.org/2000/svg">
<ellipse cx="40.5" cy="40" rx="40.5" ry="40" fill="white"/>
<g filter="url(#filter0_d)">
<path d="M37.5725 38.4165C34.8122 36.0704 31.9363 33.827 29.3579 31.3342C28.3827 30.3958 27.6885 28.8855 27.6555 27.6245C27.6389 26.5248 28.4984 25.2344 29.391 24.34C32.2999 21.422 36.2171 19.6625 39.8038 17.5217C42.2996 16.026 44.7623 14.4278 46.2333 12.067C47.2911 10.3515 48.1175 8.4306 47.4068 6.28979C48.5307 6.96429 49.0266 7.9907 49.1588 9.03178C49.539 11.8471 47.9853 14.1052 46.035 16.1287C43.3904 18.8707 39.9195 20.7035 36.6469 22.771C34.6139 24.0467 32.8454 25.6596 32.1181 27.8298C31.8371 28.6802 32.1181 29.7506 32.3991 30.6597C33.1594 33.1378 35.3246 34.78 37.0932 36.6569C37.4733 37.0675 37.7378 37.566 38.0518 38.0206C37.8865 38.1525 37.7212 38.2845 37.5725 38.4165Z" fill="#E77307"/>
</g>
<g filter="url(#filter1_d)">
<path d="M64.9599 57.889C66.1334 58.6661 66.0342 59.37 64.1665 60.0005C62.2658 60.6456 60.2824 61.2322 58.2825 61.5841C46.7953 63.6076 35.1924 63.7982 23.5565 63.0504C19.193 62.7718 14.8295 62.3172 10.4991 61.804C9.55699 61.6867 8.69751 60.9976 7.78845 60.5723C8.58181 59.9565 9.25947 59.1354 10.1851 58.7688C13.5072 57.4344 16.9947 56.6866 20.6971 57.1998C19.6558 57.3611 18.598 57.4931 17.5732 57.6984C16.5319 57.9183 15.4906 58.1823 14.5155 58.5195C14.0361 58.6955 13.656 59.106 13.2428 59.414C13.7056 59.6632 14.1188 60.0445 14.6147 60.1618C19.5731 61.3935 24.6639 61.5254 29.7711 61.6574C39.5724 61.9213 49.3572 61.6427 59.0758 60.3524C60.5964 60.1471 62.117 59.7219 63.555 59.2233C64.0839 59.062 64.431 58.4022 64.9599 57.889Z" fill="#5A87A4"/>
</g>
<g filter="url(#filter2_d)">
<path d="M43.1095 40.4987C43.407 38.9297 43.8037 37.7274 43.8037 36.525C43.7871 35.132 42.3822 34.4135 41.374 33.5777C39.1592 31.7302 38.1179 28.8416 39.341 26.5835C40.0187 25.3371 41.1757 24.1494 42.4483 23.3136C46.4647 20.6596 51.1257 19.2519 56.0512 18.4015C55.3735 18.7387 54.6793 19.0613 54.0016 19.3839C53.2909 19.7212 52.5637 20.0144 51.886 20.3663C49.258 21.7447 46.5143 22.9324 44.5474 25.1465C43.5062 26.3342 43.1591 27.9911 44.1177 29.1788C45.0598 30.3519 46.0846 31.4809 47.1589 32.5513C48.5308 33.9296 48.6134 35.8945 47.1424 37.1995C45.8862 38.3285 44.5309 39.3403 43.1095 40.4987Z" fill="#E77206"/>
</g>
<g filter="url(#filter3_d)">
<path d="M26.5977 53.1381C27.077 53.4314 27.5398 53.9592 28.0522 54.0032C31.738 54.2672 35.4403 54.5604 39.1427 54.5751C41.6219 54.5751 44.1177 54.1205 46.597 53.8859C46.8945 53.8566 47.2416 53.798 47.506 53.9006C48.7787 54.3698 50.0183 54.8684 51.324 55.6308C49.7704 55.9827 48.2333 56.408 46.6796 56.6866C39.9856 57.845 33.2916 58.0649 26.6307 56.364C25.9035 56.1734 25.1928 55.9241 24.5482 55.6015C23.4242 55.059 23.4243 53.9886 24.5317 53.4607C25.1928 53.1528 25.92 52.9622 26.6142 52.7129C26.6142 52.8449 26.6142 52.9915 26.5977 53.1381Z" fill="#5784A2"/>
</g>
<g filter="url(#filter4_d)">
<path d="M27.0605 39.2523C25.292 39.7509 23.6226 40.1761 22.0028 40.704C21.5235 40.8652 21.1433 41.2758 20.7136 41.5837C21.226 41.8183 21.7218 42.2582 22.2508 42.2729C27.0274 42.4488 31.8041 42.7714 36.5643 42.6395C41.9525 42.4928 47.3407 41.9503 52.729 41.5837C53.2909 41.5397 53.8529 41.5837 54.7454 41.5837C52.8777 42.8301 50.977 42.9914 49.1258 43.226C39.8865 44.399 30.6141 44.5896 21.3252 43.9151C19.3748 43.7685 17.4575 43.3433 15.5568 42.9767C15.2097 42.9034 14.7965 42.5368 14.6808 42.2142C14.6147 42.0383 15.0609 41.5837 15.375 41.4664C17.6724 40.528 23.8375 38.7538 27.0605 39.2523Z" fill="#5886A4"/>
</g>
<g filter="url(#filter5_d)">
<path d="M24.7961 45.9827C24.2011 47.3023 24.449 47.8009 26.0357 47.9915C27.9365 48.2261 29.8703 48.49 31.771 48.4314C37.0766 48.2848 42.3988 48.1675 47.6713 47.6249C49.7704 47.405 51.1092 48.2994 52.8116 49.0326C51.6381 49.2525 50.4646 49.5018 49.2745 49.6777C42.9938 50.6455 36.68 51.0854 30.3331 50.6162C27.4902 50.4109 24.6308 50.2349 22.0359 49.0179C20.8128 48.446 20.7962 47.8009 22.0193 47.1704C22.9119 46.7158 23.8705 46.3786 24.7961 45.9827Z" fill="#5885A3"/>
</g>
<g filter="url(#filter6_d)">
<path d="M19.6558 64.6926C24.0193 64.9126 28.3993 65.2498 32.7627 65.3085C43.2417 65.4551 53.6711 65.0592 63.9021 62.7571C65.3896 62.4199 66.7945 61.7893 68.249 61.2908C68.4804 61.2175 68.7283 61.1735 68.9597 61.1295C69.0424 61.2468 69.1416 61.3641 69.2242 61.4814C68.4804 62.0093 67.7862 62.6398 66.9598 63.021C63.8194 64.458 60.365 64.9712 56.9271 65.3818C46.6465 66.5842 36.3329 66.6428 26.0192 65.8217C23.887 65.6457 21.7879 65.0739 19.6558 64.6926Z" fill="#5E89A6"/>
</g>
<g filter="url(#filter7_d)">
<path d="M58.9436 38.9298C61.0427 37.962 65.902 37.8154 68.6127 40.5867C69.5383 41.5251 69.5548 43.7979 68.6457 44.839C67.0755 46.6425 64.9599 47.7716 62.6294 48.578C60.8609 49.1792 59.0428 49.6484 57.2412 50.1616C57.1916 50.0443 57.142 49.927 57.0924 49.8097C58.3651 49.1939 59.6708 48.6074 60.927 47.9622C62.9104 46.9358 64.5963 45.6454 65.7202 43.8419C66.3979 42.7421 65.5219 40.4547 63.9517 39.9415C62.3154 39.4136 60.5138 39.2377 58.9436 38.9298Z" fill="#5A86A4"/>
</g>
<g filter="url(#filter8_d)">
<path d="M19.6723 64.678C19.5897 64.6634 19.507 64.634 19.4409 64.6194C19.507 64.6487 19.5897 64.6634 19.6723 64.6927C19.6558 64.6927 19.6723 64.678 19.6723 64.678Z" fill="#5E89A6"/>
</g>
<defs>
<filter id="filter0_d" x="23.6552" y="3.28979" width="29.5612" height="40.1267" filterUnits="userSpaceOnUse" color-interpolation-filters="sRGB">
<feFlood flood-opacity="0" result="BackgroundImageFix"/>
<feColorMatrix in="SourceAlpha" type="matrix" values="0 0 0 0 0 0 0 0 0 0 0 0 0 0 0 0 0 0 127 0"/>
<feOffset dy="1"/>
<feGaussianBlur stdDeviation="2"/>
<feColorMatrix type="matrix" values="0 0 0 0 0 0 0 0 0 0 0 0 0 0 0 0 0 0 0.25 0"/>
<feBlend mode="normal" in2="BackgroundImageFix" result="effect1_dropShadow"/>
<feBlend mode="normal" in="SourceGraphic" in2="effect1_dropShadow" result="shape"/>
</filter>
<filter id="filter1_d" x="3.78845" y="54.037" width="65.94" height="14.4156" filterUnits="userSpaceOnUse" color-interpolation-filters="sRGB">
<feFlood flood-opacity="0" result="BackgroundImageFix"/>
<feColorMatrix in="SourceAlpha" type="matrix" values="0 0 0 0 0 0 0 0 0 0 0 0 0 0 0 0 0 0 127 0"/>
<feOffset dy="1"/>
<feGaussianBlur stdDeviation="2"/>
<feColorMatrix type="matrix" values="0 0 0 0 0 0 0 0 0 0 0 0 0 0 0 0 0 0 0.25 0"/>
<feBlend mode="normal" in2="BackgroundImageFix" result="effect1_dropShadow"/>
<feBlend mode="normal" in="SourceGraphic" in2="effect1_dropShadow" result="shape"/>
</filter>
<filter id="filter2_d" x="34.8216" y="15.4015" width="25.2295" height="30.0972" filterUnits="userSpaceOnUse" color-interpolation-filters="sRGB">
<feFlood flood-opacity="0" result="BackgroundImageFix"/>
<feColorMatrix in="SourceAlpha" type="matrix" values="0 0 0 0 0 0 0 0 0 0 0 0 0 0 0 0 0 0 127 0"/>
<feOffset dy="1"/>
<feGaussianBlur stdDeviation="2"/>
<feColorMatrix type="matrix" values="0 0 0 0 0 0 0 0 0 0 0 0 0 0 0 0 0 0 0.25 0"/>
<feBlend mode="normal" in2="BackgroundImageFix" result="effect1_dropShadow"/>
<feBlend mode="normal" in="SourceGraphic" in2="effect1_dropShadow" result="shape"/>
</filter>
<filter id="filter3_d" x="19.7032" y="49.7129" width="35.6209" height="12.885" filterUnits="userSpaceOnUse" color-interpolation-filters="sRGB">
<feFlood flood-opacity="0" result="BackgroundImageFix"/>
<feColorMatrix in="SourceAlpha" type="matrix" values="0 0 0 0 0 0 0 0 0 0 0 0 0 0 0 0 0 0 127 0"/>
<feOffset dy="1"/>
<feGaussianBlur stdDeviation="2"/>
<feColorMatrix type="matrix" values="0 0 0 0 0 0 0 0 0 0 0 0 0 0 0 0 0 0 0.25 0"/>
<feBlend mode="normal" in2="BackgroundImageFix" result="effect1_dropShadow"/>
<feBlend mode="normal" in="SourceGraphic" in2="effect1_dropShadow" result="shape"/>
</filter>
<filter id="filter4_d" x="10.6742" y="36.1656" width="48.0712" height="13.1372" filterUnits="userSpaceOnUse" color-interpolation-filters="sRGB">
<feFlood flood-opacity="0" result="BackgroundImageFix"/>
<feColorMatrix in="SourceAlpha" type="matrix" values="0 0 0 0 0 0 0 0 0 0 0 0 0 0 0 0 0 0 127 0"/>
<feOffset dy="1"/>
<feGaussianBlur stdDeviation="2"/>
<feColorMatrix type="matrix" values="0 0 0 0 0 0 0 0 0 0 0 0 0 0 0 0 0 0 0.25 0"/>
<feBlend mode="normal" in2="BackgroundImageFix" result="effect1_dropShadow"/>
<feBlend mode="normal" in="SourceGraphic" in2="effect1_dropShadow" result="shape"/>
</filter>
<filter id="filter5_d" x="17.1102" y="42.9827" width="39.7014" height="12.8223" filterUnits="userSpaceOnUse" color-interpolation-filters="sRGB">
<feFlood flood-opacity="0" result="BackgroundImageFix"/>
<feColorMatrix in="SourceAlpha" type="matrix" values="0 0 0 0 0 0 0 0 0 0 0 0 0 0 0 0 0 0 127 0"/>
<feOffset dy="1"/>
<feGaussianBlur stdDeviation="2"/>
<feColorMatrix type="matrix" values="0 0 0 0 0 0 0 0 0 0 0 0 0 0 0 0 0 0 0.25 0"/>
<feBlend mode="normal" in2="BackgroundImageFix" result="effect1_dropShadow"/>
<feBlend mode="normal" in="SourceGraphic" in2="effect1_dropShadow" result="shape"/>
</filter>
<filter id="filter6_d" x="15.6558" y="58.1295" width="57.5684" height="13.2426" filterUnits="userSpaceOnUse" color-interpolation-filters="sRGB">
<feFlood flood-opacity="0" result="BackgroundImageFix"/>
<feColorMatrix in="SourceAlpha" type="matrix" values="0 0 0 0 0 0 0 0 0 0 0 0 0 0 0 0 0 0 127 0"/>
<feOffset dy="1"/>
<feGaussianBlur stdDeviation="2"/>
<feColorMatrix type="matrix" values="0 0 0 0 0 0 0 0 0 0 0 0 0 0 0 0 0 0 0.25 0"/>
<feBlend mode="normal" in2="BackgroundImageFix" result="effect1_dropShadow"/>
<feBlend mode="normal" in="SourceGraphic" in2="effect1_dropShadow" result="shape"/>
</filter>
<filter id="filter7_d" x="53.0924" y="35.2965" width="20.2249" height="19.8651" filterUnits="userSpaceOnUse" color-interpolation-filters="sRGB">
<feFlood flood-opacity="0" result="BackgroundImageFix"/>
<feColorMatrix in="SourceAlpha" type="matrix" values="0 0 0 0 0 0 0 0 0 0 0 0 0 0 0 0 0 0 127 0"/>
<feOffset dy="1"/>
<feGaussianBlur stdDeviation="2"/>
<feColorMatrix type="matrix" values="0 0 0 0 0 0 0 0 0 0 0 0 0 0 0 0 0 0 0.25 0"/>
<feBlend mode="normal" in2="BackgroundImageFix" result="effect1_dropShadow"/>
<feBlend mode="normal" in="SourceGraphic" in2="effect1_dropShadow" result="shape"/>
</filter>
<filter id="filter8_d" x="15.4409" y="61.6194" width="8.2314" height="8.07332" filterUnits="userSpaceOnUse" color-interpolation-filters="sRGB">
<feFlood flood-opacity="0" result="BackgroundImageFix"/>
<feColorMatrix in="SourceAlpha" type="matrix" values="0 0 0 0 0 0 0 0 0 0 0 0 0 0 0 0 0 0 127 0"/>
<feOffset dy="1"/>
<feGaussianBlur stdDeviation="2"/>
<feColorMatrix type="matrix" values="0 0 0 0 0 0 0 0 0 0 0 0 0 0 0 0 0 0 0.25 0"/>
<feBlend mode="normal" in2="BackgroundImageFix" result="effect1_dropShadow"/>
<feBlend mode="normal" in="SourceGraphic" in2="effect1_dropShadow" result="shape"/>
</filter>
</defs>
</svg>
