<svg width="94" height="81" viewBox="0 0 94 81" fill="none" xmlns="http://www.w3.org/2000/svg">
<g filter="url(#filter0_d)">
<path d="M47.1716 3C25.6045 3 26.9513 11.1491 26.9513 11.1491L26.9754 19.5914H47.5562V22.1263H18.8007C18.8007 22.1263 5 20.7626 5 39.7232C5 58.6839 17.0456 58.0115 17.0456 58.0115H24.2345V49.213C24.2345 49.213 23.847 38.7177 36.0877 38.7177C48.3284 38.7177 56.5003 38.7177 56.5003 38.7177C56.5003 38.7177 67.9688 38.8792 67.9688 29.0603C67.9688 19.2414 67.9688 12.825 67.9688 12.825C67.9688 12.825 69.7101 3 47.1716 3ZM35.8232 8.67712C37.8709 8.67712 39.5259 10.1191 39.5259 11.9032C39.5259 13.6874 37.8709 15.1294 35.8232 15.1294C33.7756 15.1294 32.1206 13.6874 32.1206 11.9032C32.1206 10.1191 33.7756 8.67712 35.8232 8.67712Z" fill="url(#paint0_linear)"/>
<path d="M47.8284 76C69.3955 76 68.0487 67.8509 68.0487 67.8509L68.0246 59.4085H47.4438V56.8737H76.1993C76.1993 56.8737 90 58.2374 90 39.2767C90 20.316 77.9544 20.9884 77.9544 20.9884H70.7655V29.7869C70.7655 29.7869 71.153 40.2823 58.9123 40.2823C46.6716 40.2823 38.4997 40.2823 38.4997 40.2823C38.4997 40.2823 27.0312 40.1207 27.0312 49.9397C27.0312 59.7586 27.0312 66.175 27.0312 66.175C27.0312 66.175 25.2899 76 47.8284 76ZM59.1768 70.3228C57.1291 70.3228 55.4741 68.8808 55.4741 67.0967C55.4741 65.3126 57.1291 63.8706 59.1768 63.8706C61.2244 63.8706 62.8794 65.3126 62.8794 67.0967C62.8794 68.8808 61.2244 70.3228 59.1768 70.3228Z" fill="url(#paint1_linear)"/>
</g>
<defs>
<filter id="filter0_d" x="-4" y="0" width="100" height="85" filterUnits="userSpaceOnUse" color-interpolation-filters="sRGB">
<feFlood flood-opacity="0" result="BackgroundImageFix"/>
<feColorMatrix in="SourceAlpha" type="matrix" values="0 0 0 0 0 0 0 0 0 0 0 0 0 0 0 0 0 0 127 0"/>
<feOffset dy="1"/>
<feGaussianBlur stdDeviation="2"/>
<feColorMatrix type="matrix" values="0 0 0 0 0 0 0 0 0 0 0 0 0 0 0 0 0 0 0.25 0"/>
<feBlend mode="normal" in2="BackgroundImageFix" result="effect1_dropShadow"/>
<feBlend mode="normal" in="SourceGraphic" in2="effect1_dropShadow" result="shape"/>
</filter>
<linearGradient id="paint0_linear" x1="13.1644" y1="9.43649" x2="49.405" y2="51.1692" gradientUnits="userSpaceOnUse">
<stop stop-color="#387EB8"/>
<stop offset="1" stop-color="#366994"/>
</linearGradient>
<linearGradient id="paint1_linear" x1="39.0503" y1="32.1621" x2="78.2203" y2="75.2319" gradientUnits="userSpaceOnUse">
<stop stop-color="#FFE052"/>
<stop offset="1" stop-color="#FFC331"/>
</linearGradient>
</defs>
</svg>
