<svg width="8vh" height="8vh" viewBox="0 0 82 84" fill="none" xmlns="http://www.w3.org/2000/svg">
<path d="M78 41C78 61.9868 61.4345 79 41 79C20.5655 79 4 61.9868 4 41C4 20.0132 20.5655 3 41 3C61.4345 3 78 20.0132 78 41Z" fill="var(--logo-1)"/>
<path d="M73 41.0064C73 36.8407 67.6906 32.8929 59.5503 30.4447C61.4289 22.2927 60.594 15.807 56.9152 13.7306C56.0673 13.2435 55.0758 13.0128 53.9931 13.0128V15.8711C54.5931 15.8711 55.0758 15.9865 55.4802 16.2044C57.2544 17.2042 58.0241 21.011 57.424 25.9073C57.2805 27.1122 57.0457 28.3811 56.7587 29.6757C54.2018 29.0604 51.4101 28.5862 48.4749 28.2786C46.7138 25.9073 44.8875 23.7539 43.0481 21.8698C47.3009 17.986 51.2927 15.8583 54.0061 15.8583V13C50.4187 13 45.7224 15.5122 40.9739 19.8702C36.2254 15.5379 31.5291 13.0513 27.9417 13.0513V15.9096C30.6421 15.9096 34.647 18.0245 38.8997 21.8826C37.0734 23.7668 35.247 25.9073 33.512 28.2786C30.5638 28.5862 27.7721 29.0604 25.2152 29.6885C24.9152 28.4067 24.6934 27.1634 24.5369 25.9714C23.9238 21.0751 24.6804 17.2683 26.4415 16.2557C26.8329 16.0249 27.3416 15.9224 27.9417 15.9224V13.0641C26.8459 13.0641 25.8545 13.2948 24.9935 13.7819C21.3278 15.8583 20.5059 22.3312 22.3975 30.4575C14.2833 32.9185 9 36.8535 9 41.0064C9 45.1721 14.3094 49.1199 22.4497 51.5681C20.5711 59.7201 21.406 66.2058 25.0848 68.2822C25.9327 68.7693 26.9242 69 28.02 69C31.6074 69 36.3037 66.4878 41.0522 62.1298C45.8007 66.4621 50.4969 68.9487 54.0844 68.9487C55.1802 68.9487 56.1716 68.718 57.0326 68.2309C60.6983 66.1545 61.5202 59.6816 59.6286 51.5553C67.7167 49.1071 73 45.1593 73 41.0064ZM56.0151 32.4571C55.5324 34.1105 54.9323 35.8153 54.254 37.52C53.7191 36.4946 53.1582 35.4692 52.545 34.4438C51.945 33.4184 51.3058 32.4186 50.6665 31.4445C52.519 31.7137 54.3062 32.0469 56.0151 32.4571ZM50.0404 46.1078C49.0228 47.8382 47.9792 49.4788 46.8965 51.0041C44.9527 51.1707 42.9829 51.2605 41 51.2605C39.0302 51.2605 37.0603 51.1707 35.1296 51.0169C34.0469 49.4916 32.9902 47.8638 31.9727 46.1463C30.9812 44.4672 30.0811 42.7624 29.2593 41.0449C30.0681 39.3273 30.9812 37.6097 31.9596 35.9306C32.9772 34.2003 34.0208 32.5596 35.1035 31.0343C37.0473 30.8677 39.0171 30.778 41 30.778C42.9698 30.778 44.9397 30.8677 46.8704 31.0215C47.9531 32.5468 49.0098 34.1746 50.0273 35.8922C51.0188 37.5713 51.9189 39.276 52.7407 40.9936C51.9189 42.7111 51.0187 44.4287 50.0404 46.1078ZM54.254 44.4415C54.9584 46.1591 55.5585 47.8766 56.0542 49.5429C54.3453 49.9531 52.545 50.2991 50.6796 50.5683C51.3188 49.5814 51.958 48.5688 52.5581 47.5306C53.1582 46.5051 53.7191 45.4669 54.254 44.4415ZM41.0261 58.1179C39.8129 56.8874 38.5997 55.5159 37.3995 54.0162C38.5736 54.0675 39.7737 54.106 40.987 54.106C42.2132 54.106 43.4264 54.0803 44.6135 54.0162C43.4395 55.5159 42.2263 56.8874 41.0261 58.1179ZM31.3204 50.5683C29.468 50.2991 27.6808 49.9659 25.9719 49.5557C26.4545 47.9023 27.0546 46.1975 27.733 44.4928C28.2678 45.5182 28.8288 46.5436 29.4419 47.569C30.055 48.5944 30.6812 49.5942 31.3204 50.5683ZM40.9609 23.8949C42.1741 25.1254 43.3873 26.4969 44.5874 27.9966C43.4134 27.9453 42.2132 27.9068 41 27.9068C39.7737 27.9068 38.5605 27.9325 37.3734 27.9966C38.5475 26.4969 39.7607 25.1254 40.9609 23.8949ZM31.3074 31.4445C30.6682 32.4314 30.0289 33.444 29.4289 34.4823C28.8288 35.5077 28.2678 36.5331 27.733 37.5585C27.0285 35.8409 26.4285 34.1234 25.9327 32.4571C27.6417 32.0597 29.4419 31.7137 31.3074 31.4445ZM19.5014 47.4921C14.8834 45.5566 11.896 43.0188 11.896 41.0064C11.896 38.994 14.8834 36.4433 19.5014 34.5207C20.6233 34.0465 21.8496 33.6235 23.115 33.2261C23.8585 35.7384 24.8369 38.3532 26.0501 41.032C24.85 43.6981 23.8846 46.3001 23.1541 48.7995C21.8626 48.4021 20.6364 47.9664 19.5014 47.4921ZM26.5198 65.8084C24.7456 64.8086 23.9759 61.0018 24.576 56.1055C24.7195 54.9007 24.9543 53.6317 25.2413 52.3371C27.7982 52.9524 30.5899 53.4266 33.5251 53.7343C35.2862 56.1055 37.1125 58.2589 38.9519 60.1431C34.6991 64.0268 30.7073 66.1545 27.9939 66.1545C27.4068 66.1417 26.9111 66.0263 26.5198 65.8084ZM57.4631 56.0414C58.0762 60.9377 57.3196 64.7446 55.5585 65.7571C55.1671 65.9879 54.6584 66.0904 54.0583 66.0904C51.3579 66.0904 47.353 63.9755 43.1003 60.1174C44.9266 58.2332 46.753 56.0927 48.488 53.7214C51.4362 53.4138 54.2279 52.9396 56.7848 52.3115C57.0848 53.6061 57.3196 54.8494 57.4631 56.0414ZM62.4855 47.4921C61.3636 47.9664 60.1374 48.3893 58.872 48.7867C58.1284 46.2744 57.15 43.6596 55.9368 40.9808C57.137 38.3147 58.1023 35.7127 58.8329 33.2133C60.1243 33.6107 61.3506 34.0465 62.4986 34.5207C67.1166 36.4562 70.1039 38.994 70.1039 41.0064C70.0909 43.0188 67.1035 45.5695 62.4855 47.4921Z" fill="var(--logo-3)"/>
<path d="M40.5 46C43.5376 46 46 43.5376 46 40.5C46 37.4624 43.5376 35 40.5 35C37.4624 35 35 37.4624 35 40.5C35 43.5376 37.4624 46 40.5 46Z" fill="var(--logo-3)"/>
</svg>
