<svg width="79" height="82" viewBox="0 0 79 82" fill="none" xmlns="http://www.w3.org/2000/svg">
<rect x="30" y="36" width="43" height="25" fill="white"/>
<rect x="6" y="14" width="50" height="52" fill="white"/>
<path d="M40.9268 51.7674H38.1318C37.4485 51.7674 36.8975 51.2233 36.8975 50.5487H34.4243C34.4243 52.5683 36.0863 54.2093 38.1318 54.2136H40.9268C40.9356 54.2136 40.9444 54.2136 40.9533 54.2136C42.8269 54.2136 44.3478 52.7119 44.3478 50.8621C44.3478 49.3821 43.3735 48.1242 42.0245 47.6846L42.0025 47.6759L37.5146 46.2134C37.1487 46.0872 36.893 45.752 36.893 45.3516C36.893 44.8554 37.2986 44.4462 37.8012 44.4419H40.5962C41.2795 44.4419 41.8305 44.9903 41.835 45.665H44.3081C44.3081 43.641 42.6461 42.0044 40.5962 42H37.8012C37.7924 42 37.788 42 37.7791 42C35.9055 42 34.3846 43.5017 34.3846 45.3516C34.3846 46.8315 35.3589 48.0894 36.7079 48.529L36.7299 48.5377L41.2045 50.0133C41.5749 50.1352 41.835 50.4747 41.835 50.8751C41.835 51.3757 41.425 51.7805 40.918 51.7805H40.9136L40.9268 51.7674Z" fill="black"/>
<path d="M62.9652 54.2093H69.1503V51.7631H64.204V42H61.7308V52.9862C61.7264 53.6608 62.2819 54.2093 62.9652 54.2093Z" fill="black"/>
<path d="M49.4557 54.2093H55.5483C55.5968 54.2093 55.6453 54.2093 55.6893 54.2093L56.5754 55.0841L58.3212 53.3561L57.4395 52.4856C57.4395 52.4421 57.4395 52.3942 57.4395 52.3463V43.876C57.4395 42.8401 56.5887 42 55.5394 42H49.4513C48.4021 42 47.5513 42.8401 47.5513 43.876V52.3333C47.5601 53.3692 48.4065 54.2093 49.4557 54.2093ZM50.0288 44.4418H54.9752V50.0481L54.6093 49.6912L52.8635 51.4148L53.225 51.7718H50.0288V44.4418Z" fill="black"/>
<g filter="url(#filter0_d)">
<path d="M72.8919 33.5986H57.2615C57.4802 33.0047 57.6058 32.3162 57.6105 31.5962V14.7727C57.6105 7.13097 43.8042 3 30.8076 3C17.8109 3 4 7.13097 4 14.7727V31.5909C4.00465 32.1953 4.09307 32.7682 4.25593 33.3095L4.24662 33.2727H4V48.4091C4.00465 49.0135 4.09307 49.5864 4.25593 50.1277L4.24662 50.0909H4V65.2273C4 72.8743 17.8109 77 30.8076 77C43.8042 77 57.6105 72.8743 57.6105 65.2273V63.0724H72.8919C73.9994 63.0724 74.8974 62.0581 74.8974 60.8125V35.8585C74.8928 34.6129 73.9994 33.5986 72.8919 33.5986ZM29.9141 33.5986C28.8067 33.5986 27.9086 34.6129 27.9086 35.8585V39.9369C15.5076 39.3588 6.9781 35.1753 6.9781 31.5962V20.4016C11.7384 24.4222 21.4824 26.5507 30.8029 26.5507C40.1234 26.5507 49.8674 24.4222 54.6277 20.4016V31.5909C54.6277 32.2321 54.3392 32.8996 53.7669 33.5986H41.8405H29.9141ZM6.98276 37.2092C11.2452 40.8251 19.514 42.9169 27.9132 43.3006V56.7551C15.5122 56.177 6.98276 51.9935 6.98276 48.4143V37.2092ZM30.8076 6.36364C45.5678 6.36364 54.6324 11.2619 54.6324 14.7727C54.6324 18.2835 45.5678 23.1818 30.8076 23.1818C16.0473 23.1818 6.98276 18.2835 6.98276 14.7675C6.98276 11.2514 16.0473 6.36889 30.8076 6.36364ZM54.6324 65.2325C54.6324 68.7433 45.5678 73.6416 30.8076 73.6416C16.0473 73.6416 6.98276 68.7433 6.98276 65.2325V54.0274C11.2452 57.6433 19.514 59.7351 27.9132 60.1187V60.8125C27.9132 62.0633 28.8113 63.0724 29.9188 63.0724H54.637L54.6324 65.2325ZM72.2823 60.1293H30.5237V36.547H72.2823V60.1293Z" fill="black"/>
</g>
<defs>
<filter id="filter0_d" x="0" y="0" width="78.8974" height="82" filterUnits="userSpaceOnUse" color-interpolation-filters="sRGB">
<feFlood flood-opacity="0" result="BackgroundImageFix"/>
<feColorMatrix in="SourceAlpha" type="matrix" values="0 0 0 0 0 0 0 0 0 0 0 0 0 0 0 0 0 0 127 0"/>
<feOffset dy="1"/>
<feGaussianBlur stdDeviation="2"/>
<feColorMatrix type="matrix" values="0 0 0 0 0 0 0 0 0 0 0 0 0 0 0 0 0 0 0.25 0"/>
<feBlend mode="normal" in2="BackgroundImageFix" result="effect1_dropShadow"/>
<feBlend mode="normal" in="SourceGraphic" in2="effect1_dropShadow" result="shape"/>
</filter>
</defs>
</svg>
